<?xml version="1.0" encoding="UTF-8" standalone="no"?>
<svg width="272px" height="30px" viewBox="0 0 272 30" version="1.1" xmlns="http://www.w3.org/2000/svg" xmlns:xlink="http://www.w3.org/1999/xlink">
    <!-- Generator: Sketch 3.8.2 (29753) - http://www.bohemiancoding.com/sketch -->
    <title>Tara Parker-Essig</title>
    <desc>Created with Sketch.</desc>
    <defs></defs>
    <g id="Page-2" stroke="none" stroke-width="1" fill="none" fill-rule="evenodd">
        <path d="M9.49572104,3.17593373 C9.49572104,3.26148119 9.45829459,3.30425428 9.38344056,3.30425428 C9.26581279,3.30425428 9.15888007,3.09573547 9.06263917,2.67869158 C8.87015738,1.85529724 8.60282556,1.29390042 8.2606357,0.994484298 C7.91844585,0.695068174 7.37308894,0.545362357 6.62454863,0.545362357 C6.33582594,0.545362357 6.08453403,0.55605563 5.87066537,0.577442496 L5.88670544,10.3298046 C5.89739888,10.5971405 5.97225178,10.7682328 6.11126641,10.8430869 C6.25028104,10.9179409 6.62454558,10.9821005 7.23407127,11.0355677 C7.35169903,11.0462611 7.41051203,11.0943809 7.41051203,11.1799283 C7.41051203,11.2868627 7.32496585,11.340329 7.15387092,11.340329 C7.12179062,11.340329 7.04159108,11.3349824 6.91326988,11.3242889 C6.75286838,11.3135955 6.61920248,11.3082489 6.51226815,11.3082489 L4.86014101,11.2601287 L2.13332922,11.3082489 C1.98362116,11.3082489 1.90876825,11.2654758 1.90876825,11.1799283 C1.90876825,11.1157677 1.9301548,11.0783413 1.97292853,11.0676478 C2.01570226,11.0569544 2.19214126,11.0462611 2.50225082,11.0355677 C3.09038963,11.0141808 3.40584117,10.8751683 3.44861491,10.6185259 C3.47000177,10.4795113 3.48069504,9.39414409 3.48069504,7.36239182 L3.48069504,0.577442496 C3.36306728,0.566749063 3.22405474,0.561402426 3.06365324,0.561402426 C2.2081786,0.561402426 1.58529547,0.719128198 1.19498516,1.03458447 C0.80467486,1.35004075 0.550709635,1.90876424 0.433081872,2.71077172 C0.358227841,3.18128277 0.261988387,3.41653477 0.144360624,3.41653477 C0.0481197268,3.41653477 0,3.35237513 0,3.22405393 C0,3.13850647 0.0213865452,2.84444147 0.0641602773,2.34185012 C0.149707741,1.29389369 0.203174105,0.577444421 0.224560971,0.192480832 L0.46516201,0.192480832 L1.63608707,0.176440763 C1.66816737,0.176440763 2.03975859,0.187134035 2.75087189,0.208520901 C3.46198519,0.229907767 4.36824004,0.24060104 5.46966364,0.24060104 C6.07918932,0.24060104 6.62454623,0.235254404 7.10575071,0.224560971 C7.5869552,0.213867538 8.02537938,0.208520901 8.4210364,0.208520901 C8.77391969,0.208520901 9.0412515,0.197827629 9.22303986,0.176440763 C9.25512016,0.871513909 9.33531971,1.75905554 9.4636409,2.83909227 C9.48502777,3.02088063 9.49572104,3.13315999 9.49572104,3.17593373 L9.49572104,3.17593373 Z M17.9448276,10.4420851 C17.9448276,10.5276326 17.8592815,10.6452586 17.6881865,10.7949667 C17.2283689,11.2120105 16.6616255,11.4205294 15.9879392,11.4205294 C15.5495084,11.4205294 15.2313836,11.3296365 15.0335551,11.1478482 C14.8357266,10.9660598 14.704734,10.639915 14.6405734,10.169404 C14.1593689,11.0462655 13.5017326,11.4846896 12.6676448,11.4846896 C12.2078272,11.4846896 11.836236,11.3403305 11.55286,11.0516078 C11.269484,10.7628851 11.1277982,10.3886205 11.1277982,9.92880291 C11.1277982,8.58143035 12.2826716,7.78478154 14.5924532,7.53883258 L14.5924532,7.20199113 C14.5924532,6.13264783 14.5550267,5.47501156 14.4801727,5.2290626 L14.4641326,5.14886225 C14.3144245,4.6141906 13.9348134,4.34685879 13.3252877,4.34685879 C12.9724044,4.34685879 12.6890327,4.44844488 12.475164,4.6516201 C12.2612953,4.85479533 12.1543626,5.05262088 12.1543626,5.24510267 C12.1543626,5.352037 12.2826819,5.41619664 12.5393243,5.4375835 C12.9242879,5.4696638 13.1167668,5.7049158 13.1167668,6.14334655 C13.1167668,6.37860208 13.0392406,6.5737543 12.8841858,6.72880908 C12.729131,6.88386386 12.5286321,6.96139009 12.2826832,6.96139009 C11.9725736,6.96139009 11.7186084,6.86782395 11.5207799,6.68068887 C11.3229514,6.4935538 11.2240386,6.25562848 11.2240386,5.96690579 C11.2240386,5.50708817 11.453944,5.09005054 11.9137616,4.71578038 C12.3735792,4.34151023 12.9777491,4.15437796 13.7262894,4.15437796 C14.8384064,4.15437796 15.6136687,4.3522035 16.0520995,4.74786052 C16.4049828,5.07935694 16.5814218,5.65679367 16.5814218,6.48018801 L16.5814218,9.22303986 C16.5814218,9.75771151 16.5867684,10.0678164 16.5974618,10.1533639 C16.650929,10.6024881 16.8059814,10.8270468 17.0626238,10.8270468 C17.2444122,10.8270468 17.4689709,10.6987275 17.7363067,10.4420851 C17.7897739,10.388618 17.832547,10.3618848 17.8646273,10.3618848 C17.9180945,10.3618848 17.9448276,10.388618 17.9448276,10.4420851 L17.9448276,10.4420851 Z M14.5924532,8.53331688 L14.5924532,7.74735348 C13.5551902,7.95052871 13.0365664,8.53865871 13.0365664,9.51176111 C13.0365664,10.2603014 13.293205,10.634566 13.8064898,10.634566 C14.0952125,10.634566 14.2983846,10.4741669 14.4160124,10.1533639 C14.5336402,9.83256089 14.5924532,9.29255063 14.5924532,8.53331688 L14.5924532,8.53331688 Z M25.0465684,5.34134309 C25.0465684,5.65145264 24.9556756,5.90541787 24.7738873,6.10324638 C24.5920989,6.30107489 24.3568469,6.39998766 24.0681242,6.39998766 C23.4906788,6.39998766 23.2019605,6.13265585 23.2019605,5.5979842 C23.2019605,5.41619583 23.2714667,5.2344102 23.4104814,5.05262184 C23.4425617,5.00984811 23.4586016,4.97242165 23.4586016,4.94034135 C23.4586016,4.84410046 23.3890953,4.79598073 23.2500807,4.79598073 C22.8865039,4.79598073 22.6084789,5.07935245 22.4159971,5.6461044 C22.3090627,5.96690739 22.2555964,6.75286293 22.2555964,8.00399459 L22.2555964,9.17491966 L22.2716364,10.5864458 C22.2716364,10.8751684 22.4159956,11.0302209 22.7047183,11.0516078 C22.8758132,11.0623012 23.0789854,11.0676478 23.3142409,11.0676478 C23.4318687,11.0783413 23.4906817,11.1157677 23.4906817,11.1799283 C23.4906817,11.2654758 23.442562,11.3082489 23.3463211,11.3082489 L23.0255197,11.3082489 C22.9292788,11.2975554 22.4641214,11.2922088 21.6300337,11.2922088 C21.6728074,11.2922088 21.4322088,11.2975554 20.9082305,11.3082489 L20.1222671,11.3242889 L19.5127445,11.3242889 C19.4058102,11.3349824 19.2828375,11.340329 19.1438229,11.340329 C19.0261952,11.340329 18.9673822,11.3029026 18.9673822,11.2280485 C18.9673822,11.1531945 19.0422351,11.115768 19.1919431,11.115768 C19.6303739,11.1050746 19.8950324,11.0596282 19.9859266,10.9794275 C20.0768207,10.8992267 20.1222671,10.6613014 20.1222671,10.2656444 L20.1062271,5.93482565 C20.1062271,5.57124893 20.055434,5.31995702 19.9538464,5.18094239 C19.8522588,5.04192776 19.6250268,4.95638158 19.2721435,4.92430128 C18.9941142,4.90291442 18.8363884,4.88687451 18.7989614,4.87618108 C18.7615344,4.86548764 18.7428212,4.82806119 18.7428212,4.76390059 C18.7428212,4.69973999 18.7855943,4.66766017 18.8711417,4.66766017 C18.9673826,4.66766017 19.0582755,4.67300681 19.1438229,4.68370024 L19.4646243,4.68370024 C20.2880186,4.68370024 21.1755603,4.51260788 22.1272758,4.17041803 C22.180743,4.38428669 22.2074762,4.63023196 22.2074762,4.90826121 L22.2074762,5.58194413 C22.4106514,5.05796591 22.6325368,4.689048 22.873139,4.47517934 C23.1137413,4.26131068 23.4265195,4.15437796 23.8114831,4.15437796 C24.1750598,4.15437796 24.4717981,4.26665732 24.7017069,4.49121941 C24.9316158,4.7157815 25.0465684,4.99915323 25.0465684,5.34134309 L25.0465684,5.34134309 Z M33.6881559,10.4420851 C33.6881559,10.5276326 33.6026097,10.6452586 33.4315148,10.7949667 C32.9716971,11.2120105 32.4049537,11.4205294 31.7312674,11.4205294 C31.2928367,11.4205294 30.9747118,11.3296365 30.7768833,11.1478482 C30.5790548,10.9660598 30.4480622,10.639915 30.3839016,10.169404 C29.9026971,11.0462655 29.2450608,11.4846896 28.4109731,11.4846896 C27.9511554,11.4846896 27.5795642,11.3403305 27.2961882,11.0516078 C27.0128123,10.7628851 26.8711264,10.3886205 26.8711264,9.92880291 C26.8711264,8.58143035 28.0259998,7.78478154 30.3357814,7.53883258 L30.3357814,7.20199113 C30.3357814,6.13264783 30.2983549,5.47501156 30.2235009,5.2290626 L30.2074608,5.14886225 C30.0577528,4.6141906 29.6781416,4.34685879 29.0686159,4.34685879 C28.7157326,4.34685879 28.4323609,4.44844488 28.2184922,4.6516201 C28.0046236,4.85479533 27.8976908,5.05262088 27.8976908,5.24510267 C27.8976908,5.352037 28.0260101,5.41619664 28.2826525,5.4375835 C28.6676161,5.4696638 28.860095,5.7049158 28.860095,6.14334655 C28.860095,6.37860208 28.7825688,6.5737543 28.627514,6.72880908 C28.4724592,6.88386386 28.2719604,6.96139009 28.0260114,6.96139009 C27.7159018,6.96139009 27.4619366,6.86782395 27.2641081,6.68068887 C27.0662796,6.4935538 26.9673668,6.25562848 26.9673668,5.96690579 C26.9673668,5.50708817 27.1972722,5.09005054 27.6570898,4.71578038 C28.1169074,4.34151023 28.7210773,4.15437796 29.4696176,4.15437796 C30.5817347,4.15437796 31.3569969,4.3522035 31.7954277,4.74786052 C32.148311,5.07935694 32.32475,5.65679367 32.32475,6.48018801 L32.32475,9.22303986 C32.32475,9.75771151 32.3300966,10.0678164 32.34079,10.1533639 C32.3942572,10.6024881 32.5493097,10.8270468 32.8059521,10.8270468 C32.9877404,10.8270468 33.2122991,10.6987275 33.479635,10.4420851 C33.5331021,10.388618 33.5758752,10.3618848 33.6079555,10.3618848 C33.6614227,10.3618848 33.6881559,10.388618 33.6881559,10.4420851 L33.6881559,10.4420851 Z M30.3357814,8.53331688 L30.3357814,7.74735348 C29.2985184,7.95052871 28.7798947,8.53865871 28.7798947,9.51176111 C28.7798947,10.2603014 29.0365332,10.634566 29.549818,10.634566 C29.8385407,10.634566 30.0417129,10.4741669 30.1593406,10.1533639 C30.2769684,9.83256089 30.3357814,9.29255063 30.3357814,8.53331688 L30.3357814,8.53331688 Z M46.8329929,2.75889192 C46.8329929,3.67852716 46.4908081,4.41903629 45.8064284,4.98044153 C45.1220487,5.54184676 44.2131205,5.82254517 43.0796166,5.82254517 C42.7908939,5.82254517 42.3845496,5.78511871 41.8605714,5.71026468 L41.8605714,9.81652243 C41.8605714,10.4046612 41.9006711,10.7495193 41.9808719,10.8511069 C42.0610726,10.9526945 42.357811,11.0141808 42.8710957,11.0355677 C43.1598184,11.0248743 43.3041776,11.072994 43.3041776,11.1799283 C43.3041776,11.2761692 43.2186314,11.3242889 43.0475365,11.3242889 L42.8069355,11.3242889 C42.7534683,11.3242889 42.5048497,11.3189423 42.0610722,11.3082489 C41.6172948,11.2975554 41.1601574,11.2922088 40.6896463,11.2922088 L38.8129582,11.3082489 C38.4600749,11.3082489 38.2569027,11.2975556 38.2034356,11.2761687 C38.1499684,11.2547819 38.1232352,11.2227021 38.1232352,11.1799283 C38.1232352,11.0943809 38.2087814,11.0516078 38.3798763,11.0516078 C38.9038545,11.0409143 39.2166328,10.9927946 39.3182204,10.9072471 C39.419808,10.8216997 39.470601,10.5757544 39.470601,10.169404 L39.470601,1.92480832 C39.470601,1.24042861 39.4438679,0.82873761 39.3904007,0.689722981 C39.3369335,0.550708352 39.0642551,0.48120208 38.5723572,0.48120208 C38.2836345,0.48120208 38.1392753,0.438428989 38.1392753,0.352881525 C38.1392753,0.256640628 38.2729412,0.208520901 38.540277,0.208520901 L43.1277368,0.192480832 C44.2505473,0.192480832 45.0899692,0.363573194 45.6460277,0.70576305 C46.4373418,1.19766097 46.8329929,1.88203042 46.8329929,2.75889192 L46.8329929,2.75889192 Z M44.2505417,2.85513234 C44.2505417,1.27250425 43.7533045,0.48120208 42.7588152,0.48120208 C42.159983,0.48120208 41.8605714,0.743187259 41.8605714,1.26716548 L41.8605714,5.46966364 C42.2990021,5.46966364 42.5984138,5.45362373 42.7588152,5.42154343 C43.0689248,5.36807627 43.3362566,5.24510363 43.5608187,5.05262184 C44.0206363,4.64627138 44.2505417,3.91378221 44.2505417,2.85513234 L44.2505417,2.85513234 Z M55.6029009,10.4420851 C55.6029009,10.5276326 55.5173547,10.6452586 55.3462597,10.7949667 C54.8864421,11.2120105 54.3196987,11.4205294 53.6460124,11.4205294 C53.2075816,11.4205294 52.8894568,11.3296365 52.6916283,11.1478482 C52.4937998,10.9660598 52.3628072,10.639915 52.2986466,10.169404 C51.8174421,11.0462655 51.1598058,11.4846896 50.325718,11.4846896 C49.8659004,11.4846896 49.4943092,11.3403305 49.2109332,11.0516078 C48.9275572,10.7628851 48.7858714,10.3886205 48.7858714,9.92880291 C48.7858714,8.58143035 49.9407448,7.78478154 52.2505264,7.53883258 L52.2505264,7.20199113 C52.2505264,6.13264783 52.2130999,5.47501156 52.1382459,5.2290626 L52.1222058,5.14886225 C51.9724977,4.6141906 51.5928866,4.34685879 50.9833609,4.34685879 C50.6304776,4.34685879 50.3471059,4.44844488 50.1332372,4.6516201 C49.9193686,4.85479533 49.8124358,5.05262088 49.8124358,5.24510267 C49.8124358,5.352037 49.9407551,5.41619664 50.1973975,5.4375835 C50.5823611,5.4696638 50.77484,5.7049158 50.77484,6.14334655 C50.77484,6.37860208 50.6973138,6.5737543 50.542259,6.72880908 C50.3872042,6.88386386 50.1867053,6.96139009 49.9407564,6.96139009 C49.6306468,6.96139009 49.3766816,6.86782395 49.1788531,6.68068887 C48.9810246,6.4935538 48.8821118,6.25562848 48.8821118,5.96690579 C48.8821118,5.50708817 49.1120172,5.09005054 49.5718348,4.71578038 C50.0316524,4.34151023 50.6358223,4.15437796 51.3843626,4.15437796 C52.4964797,4.15437796 53.2717419,4.3522035 53.7101727,4.74786052 C54.063056,5.07935694 54.239495,5.65679367 54.239495,6.48018801 L54.239495,9.22303986 C54.239495,9.75771151 54.2448416,10.0678164 54.255535,10.1533639 C54.3090022,10.6024881 54.4640546,10.8270468 54.720697,10.8270468 C54.9024854,10.8270468 55.1270441,10.6987275 55.39438,10.4420851 C55.4478471,10.388618 55.4906202,10.3618848 55.5227005,10.3618848 C55.5761677,10.3618848 55.6029009,10.388618 55.6029009,10.4420851 L55.6029009,10.4420851 Z M52.2505264,8.53331688 L52.2505264,7.74735348 C51.2132634,7.95052871 50.6946396,8.53865871 50.6946396,9.51176111 C50.6946396,10.2603014 50.9512782,10.634566 51.464563,10.634566 C51.7532857,10.634566 51.9564578,10.4741669 52.0740856,10.1533639 C52.1917134,9.83256089 52.2505264,9.29255063 52.2505264,8.53331688 L52.2505264,8.53331688 Z M62.7046416,5.34134309 C62.7046416,5.65145264 62.6137488,5.90541787 62.4319605,6.10324638 C62.2501721,6.30107489 62.0149201,6.39998766 61.7261974,6.39998766 C61.148752,6.39998766 60.8600337,6.13265585 60.8600337,5.5979842 C60.8600337,5.41619583 60.9295399,5.2344102 61.0685546,5.05262184 C61.1006349,5.00984811 61.1166748,4.97242165 61.1166748,4.94034135 C61.1166748,4.84410046 61.0471685,4.79598073 60.9081539,4.79598073 C60.5445771,4.79598073 60.2665521,5.07935245 60.0740703,5.6461044 C59.9671359,5.96690739 59.9136696,6.75286293 59.9136696,8.00399459 L59.9136696,9.17491966 L59.9297096,10.5864458 C59.9297096,10.8751684 60.0740688,11.0302209 60.3627915,11.0516078 C60.5338864,11.0623012 60.7370586,11.0676478 60.9723141,11.0676478 C61.0899419,11.0783413 61.1487549,11.1157677 61.1487549,11.1799283 C61.1487549,11.2654758 61.1006352,11.3082489 61.0043943,11.3082489 L60.6835929,11.3082489 C60.587352,11.2975554 60.1221946,11.2922088 59.2881069,11.2922088 C59.3308806,11.2922088 59.090282,11.2975554 58.5663037,11.3082489 L57.7803404,11.3242889 L57.1708177,11.3242889 C57.0638834,11.3349824 56.9409108,11.340329 56.8018961,11.340329 C56.6842684,11.340329 56.6254554,11.3029026 56.6254554,11.2280485 C56.6254554,11.1531945 56.7003083,11.115768 56.8500163,11.115768 C57.2884471,11.1050746 57.5531056,11.0596282 57.6439998,10.9794275 C57.7348939,10.8992267 57.7803404,10.6613014 57.7803404,10.2656444 L57.7643003,5.93482565 C57.7643003,5.57124893 57.7135072,5.31995702 57.6119196,5.18094239 C57.510332,5.04192776 57.2831,4.95638158 56.9302167,4.92430128 C56.6521874,4.90291442 56.4944616,4.88687451 56.4570346,4.87618108 C56.4196076,4.86548764 56.4008944,4.82806119 56.4008944,4.76390059 C56.4008944,4.69973999 56.4436675,4.66766017 56.5292149,4.66766017 C56.6254558,4.66766017 56.7163487,4.67300681 56.8018961,4.68370024 L57.1226975,4.68370024 C57.9460919,4.68370024 58.8336335,4.51260788 59.785349,4.17041803 C59.8388162,4.38428669 59.8655494,4.63023196 59.8655494,4.90826121 L59.8655494,5.58194413 C60.0687246,5.05796591 60.29061,4.689048 60.5312122,4.47517934 C60.7718145,4.26131068 61.0845927,4.15437796 61.4695563,4.15437796 C61.833133,4.15437796 62.1298713,4.26665732 62.3597801,4.49121941 C62.589689,4.7157815 62.7046416,4.99915323 62.7046416,5.34134309 L62.7046416,5.34134309 Z M72.8058754,11.1959684 C72.8058754,11.2708224 72.6080498,11.3082489 72.2123928,11.3082489 L71.9397116,11.3082489 C71.7365364,11.3082489 71.4611846,11.3029022 71.1136481,11.2922088 C70.7661115,11.2815154 70.4319467,11.2761687 70.1111437,11.2761687 C69.7154867,11.2761687 69.4160751,11.2815154 69.2128999,11.2922088 C69.0097246,11.3029022 68.8653654,11.3082489 68.779818,11.3082489 C68.6301099,11.3082489 68.555257,11.2708224 68.555257,11.1959684 C68.555257,11.1211144 68.6996162,11.0783413 68.9883389,11.0676478 C69.1701272,11.0569544 69.2610201,10.9981414 69.2610201,10.8912071 C69.2610201,10.7842727 69.0364613,10.3672351 68.5873371,9.64008167 C68.459016,9.44759987 68.2718837,9.14818824 68.0259347,8.74183778 C67.8548398,8.44242166 67.6088945,8.05211721 67.2880915,7.57091272 L67.2880915,9.94484298 C67.2880915,10.5115949 67.3068048,10.8430864 67.3442318,10.9393273 C67.3816588,11.0355682 67.5019581,11.0836879 67.7051333,11.0836879 C67.7692939,11.0836879 67.8227603,11.0783413 67.865534,11.0676478 L67.9938546,11.0676478 C68.1007889,11.0676478 68.1542553,11.1104209 68.1542553,11.1959684 C68.1542553,11.2815159 68.0954423,11.3242889 67.9778145,11.3242889 L67.9136542,11.3242889 L67.4966124,11.3082489 L66.9672901,11.3082489 L65.9728058,11.2922088 L64.4169191,11.2922088 C64.363452,11.3029022 64.304639,11.3082489 64.2404784,11.3082489 C64.1228506,11.3082489 64.0640376,11.2708224 64.0640376,11.1959684 C64.0640376,11.1211144 64.2030501,11.0783413 64.4810794,11.0676478 C64.8339627,11.0569544 65.0344616,11.0248746 65.082582,10.9714074 C65.1307024,10.9179403 65.1547623,10.6506084 65.1547623,10.169404 L65.1387222,1.71628742 C65.1387222,1.29924353 65.0932758,1.04260499 65.0023817,0.94636409 C64.9114875,0.850123193 64.6682155,0.807350103 64.2725585,0.818043536 C64.0693833,0.818043536 63.9677972,0.780617082 63.9677972,0.70576305 C63.9677972,0.641602452 63.9891837,0.604175998 64.0319575,0.593482565 C64.0747312,0.582789132 64.2297836,0.572095859 64.4971195,0.561402426 C65.5771562,0.518628694 66.3363786,0.37961615 66.7748093,0.144360624 C66.9245174,0.0588131598 67.0528366,0.010693433 67.159771,0 C67.2025447,0.149708062 67.2292779,0.438426423 67.2399713,0.866163744 L67.2720515,2.58245116 C67.2827449,3.15989654 67.2880915,3.96723863 67.2880915,5.00450163 L67.2880915,7.34635175 C67.4591865,7.20733712 67.7372115,6.9239654 68.1221751,6.49622808 C68.2825766,6.31443972 68.5231753,6.04176126 68.8439783,5.67818454 C69.357263,5.10073916 69.6139016,4.79063425 69.6139016,4.74786052 C69.6139016,4.69439336 69.5818218,4.66231354 69.5176612,4.6516201 C69.4535006,4.64092667 69.2396351,4.6302334 68.8760584,4.61953997 C68.6301094,4.61953997 68.5071368,4.57142024 68.5071368,4.47517934 C68.5071368,4.38963188 68.5712964,4.34685879 68.6996176,4.34685879 L69.9186629,4.37893893 L71.1697883,4.34685879 C71.3622701,4.34685879 71.4585096,4.37893861 71.4585096,4.4430992 C71.4585096,4.5072598 71.2392975,4.55003289 70.8008667,4.57141976 C70.512144,4.58211319 70.276892,4.67835264 70.0951037,4.86014101 C69.7636072,5.180944 69.341223,5.63006145 68.8279382,6.20750683 L70.6725462,8.99847889 C70.7687871,9.15888039 70.9238395,9.39947902 71.1377082,9.72028201 C71.1697885,9.76305574 71.249988,9.88068174 71.3783092,10.0731635 L71.6509904,10.4581252 L71.7793109,10.650606 C71.8969387,10.8323944 71.9931782,10.9473471 72.0680322,10.9954675 C72.1428862,11.043588 72.2845721,11.0676478 72.493094,11.0676478 C72.701616,11.0676478 72.8058754,11.1104209 72.8058754,11.1959684 L72.8058754,11.1959684 Z M80.1482172,9.33532035 C80.1482172,9.57057587 80.0092047,9.88068078 79.7311754,10.2656444 C79.1323432,11.0890387 78.3517343,11.5007297 77.3893253,11.5007297 C76.3092885,11.5007297 75.4217469,11.158545 74.7266738,10.4741653 C74.0316006,9.78978556 73.6840693,8.9129372 73.6840693,7.8435939 C73.6840693,6.79563747 74.0209074,5.92146243 74.6945936,5.22104257 C75.3682799,4.5206227 76.2077018,4.17041803 77.2128845,4.17041803 C77.8972642,4.17041803 78.4800476,4.32012384 78.9612521,4.61953997 C79.4959237,4.95103639 79.8434551,5.42688702 80.0038566,6.04710614 C80.0466303,6.23958793 80.0787101,6.46949329 80.100097,6.73682912 C79.854148,6.75821598 78.8650203,6.77425589 77.1326842,6.78494933 C76.8653483,6.78494933 76.5285103,6.7956426 76.1221598,6.81702946 C76.0900795,7.20199305 76.0740396,7.52813787 76.0740396,7.79547369 C76.0740396,9.04660536 76.3360248,9.93414698 76.860003,10.4581252 C77.1701125,10.7682348 77.5497237,10.9232872 77.9988479,10.9232872 C78.3731181,10.9232872 78.734016,10.7949679 79.0815526,10.5383255 C79.4290892,10.2816832 79.6937477,9.9501917 79.875536,9.54384125 C79.9610835,9.34066602 80.0305898,9.23907993 80.0840569,9.23907993 C80.1268307,9.23907993 80.1482172,9.27115975 80.1482172,9.33532035 L80.1482172,9.33532035 Z M78.1271685,6.54434829 C78.1378619,5.72095394 78.0790489,5.14886386 77.9507277,4.82806087 C77.8224065,4.50725788 77.5978478,4.34685879 77.2770448,4.34685879 C76.6247454,4.34685879 76.2504808,5.07934796 76.1542399,6.54434829 C76.378802,6.53365485 76.849306,6.52830822 77.565766,6.52830822 C77.7796347,6.52830822 77.966767,6.53365485 78.1271685,6.54434829 L78.1271685,6.54434829 Z M87.7632402,5.34134309 C87.7632402,5.65145264 87.6723474,5.90541787 87.490559,6.10324638 C87.3087707,6.30107489 87.0735187,6.39998766 86.784796,6.39998766 C86.2073506,6.39998766 85.9186322,6.13265585 85.9186322,5.5979842 C85.9186322,5.41619583 85.9881385,5.2344102 86.1271531,5.05262184 C86.1592334,5.00984811 86.1752733,4.97242165 86.1752733,4.94034135 C86.1752733,4.84410046 86.1057671,4.79598073 85.9667524,4.79598073 C85.6031757,4.79598073 85.3251506,5.07935245 85.1326688,5.6461044 C85.0257345,5.96690739 84.9722681,6.75286293 84.9722681,8.00399459 L84.9722681,9.17491966 L84.9883082,10.5864458 C84.9883082,10.8751684 85.1326674,11.0302209 85.4213901,11.0516078 C85.592485,11.0623012 85.7956572,11.0676478 86.0309127,11.0676478 C86.1485405,11.0783413 86.2073535,11.1157677 86.2073535,11.1799283 C86.2073535,11.2654758 86.1592338,11.3082489 86.0629929,11.3082489 L85.7421915,11.3082489 C85.6459506,11.2975554 85.1807932,11.2922088 84.3467054,11.2922088 C84.3894792,11.2922088 84.1488805,11.2975554 83.6249023,11.3082489 L82.8389389,11.3242889 L82.2294163,11.3242889 C82.122482,11.3349824 81.9995093,11.340329 81.8604947,11.340329 C81.7428669,11.340329 81.6840539,11.3029026 81.6840539,11.2280485 C81.6840539,11.1531945 81.7589068,11.115768 81.9086149,11.115768 C82.3470457,11.1050746 82.6117042,11.0596282 82.7025983,10.9794275 C82.7934925,10.8992267 82.8389389,10.6613014 82.8389389,10.2656444 L82.8228989,5.93482565 C82.8228989,5.57124893 82.7721058,5.31995702 82.6705182,5.18094239 C82.5689306,5.04192776 82.3416985,4.95638158 81.9888152,4.92430128 C81.710786,4.90291442 81.5530602,4.88687451 81.5156332,4.87618108 C81.4782062,4.86548764 81.459493,4.82806119 81.459493,4.76390059 C81.459493,4.69973999 81.5022661,4.66766017 81.5878135,4.66766017 C81.6840544,4.66766017 81.7749472,4.67300681 81.8604947,4.68370024 L82.1812961,4.68370024 C83.0046904,4.68370024 83.892232,4.51260788 84.8439476,4.17041803 C84.8974148,4.38428669 84.9241479,4.63023196 84.9241479,4.90826121 L84.9241479,5.58194413 C85.1273232,5.05796591 85.3492086,4.689048 85.5898108,4.47517934 C85.8304131,4.26131068 86.1431913,4.15437796 86.5281549,4.15437796 C86.8917316,4.15437796 87.1884699,4.26665732 87.4183787,4.49121941 C87.6482875,4.7157815 87.7632402,4.99915323 87.7632402,5.34134309 L87.7632402,5.34134309 Z M93.2770141,8.4691566 L92.6033312,8.4691566 C92.3359954,8.4691566 92.0659903,8.46380997 91.7933077,8.45311654 C91.5206252,8.4424231 91.3896326,8.43707647 91.400326,8.43707647 C91.0902165,8.45846333 90.6785255,8.4691566 90.1652407,8.4691566 L89.3953173,8.4691566 L89.3953173,6.81702946 L90.1652407,6.81702946 L91.7371675,6.8491096 C91.6730069,6.8491096 92.186284,6.83841633 93.2770141,6.81702946 L93.2770141,8.4691566 Z M103.97173,8.48519667 C103.97173,8.50658354 103.966384,9.00382072 103.95569,9.97692312 C103.944997,10.4902079 103.936977,10.8591258 103.93163,11.0836879 C103.926284,11.30825 103.92361,11.4151827 103.92361,11.4044893 C101.100544,11.2761681 98.6303979,11.2387416 96.5130982,11.2922088 L95.1657324,11.3242889 C94.9732506,11.3242889 94.8770111,11.2815159 94.8770111,11.1959684 C94.8770111,11.1318078 94.901071,11.0943813 94.9491914,11.0836879 C94.9973119,11.0729945 95.1603843,11.0569546 95.4384136,11.0355677 C95.9410049,11.0034874 96.2136834,10.8591282 96.2564571,10.6024858 C96.277844,10.4634712 96.2885372,10.3084187 96.2885372,10.1373238 L96.2885372,2.00500867 C96.2885372,1.36340268 96.2831906,1.01052469 96.2724972,0.94636409 C96.2618037,0.775269162 96.2083374,0.657643163 96.1120965,0.593482565 C96.0158556,0.529321967 95.81803,0.497242149 95.5186139,0.497242149 C95.1871175,0.497242149 95.0213718,0.449122422 95.0213718,0.352881525 C95.0213718,0.245947195 95.1684043,0.192480832 95.4624737,0.192480832 C95.7565431,0.192480832 96.1655607,0.187134196 96.689539,0.176440763 C98.6571306,0.133667031 100.266468,0.122973758 101.5176,0.144360624 L102.608325,0.160400693 C102.84358,0.160400693 103.132298,0.139014148 103.474488,0.096240416 L103.618849,1.84460797 C103.672316,2.40066649 103.699049,2.74285121 103.699049,2.87117241 C103.699049,2.97810674 103.645583,3.0315731 103.538649,3.0315731 C103.431714,3.0315731 103.362208,2.89256056 103.330128,2.6145313 C103.233887,1.87668442 102.937148,1.33934747 102.439904,1.00250433 C101.942659,0.665661193 101.207497,0.497242149 100.234394,0.497242149 C99.9349782,0.497242149 99.4217011,0.513282058 98.6945476,0.545362357 L98.6945476,5.27718281 C99.8708253,5.28787624 100.611334,5.20500338 100.916097,5.02856173 C101.22086,4.85212009 101.426706,4.39498268 101.53364,3.65713581 C101.587107,3.26147878 101.667307,3.06365324 101.774241,3.06365324 C101.870482,3.06365324 101.918602,3.1598927 101.918602,3.35237449 C101.918602,3.54485628 101.902562,3.94050737 101.870481,4.53933962 C101.859788,4.74251485 101.854441,5.0151933 101.854441,5.35738316 C101.854441,6.27701839 101.865135,6.97208111 101.886521,7.44259217 C101.897215,7.50675277 101.902561,7.58695231 101.902561,7.68319321 C101.902561,7.8115144 101.854442,7.87567404 101.758201,7.87567404 C101.683347,7.87567404 101.635227,7.85161418 101.61384,7.80349373 C101.592453,7.75537328 101.560374,7.5816076 101.5176,7.28219147 C101.410665,6.52295773 101.263633,6.04978042 101.076498,5.86264534 C100.889363,5.67551026 100.458959,5.58194413 99.7852723,5.58194413 L98.6945476,5.58194413 L98.6945476,10.9874475 L99.7211121,10.9714074 C100.89739,10.9500206 101.613839,10.9232874 101.870481,10.8912071 C102.191284,10.8484333 102.501389,10.7308073 102.800805,10.5383255 C103.068141,10.3244569 103.2526,10.0945515 103.354188,9.84860257 C103.455775,9.60265361 103.565381,9.14818952 103.683009,8.48519667 C103.715089,8.32479518 103.768556,8.24459563 103.84341,8.24459563 C103.928957,8.24459563 103.97173,8.32479518 103.97173,8.48519667 L103.97173,8.48519667 Z M110.929111,9.07867924 C110.929111,9.79513925 110.709899,10.3752493 110.271468,10.8190268 C109.833037,11.2628042 109.266294,11.4846896 108.57122,11.4846896 C108.229031,11.4846896 107.822686,11.3991435 107.352175,11.2280485 C106.967212,11.0890339 106.71592,11.0195276 106.598292,11.0195276 C106.395117,11.0195276 106.261451,11.0943805 106.19729,11.2440886 C106.13313,11.3937967 106.08501,11.4686496 106.05293,11.4686496 C105.988769,11.4686496 105.956689,11.4312231 105.956689,11.3563691 C105.956689,11.2922085 105.967382,11.1906224 105.988769,11.0516078 C106.02085,10.8484325 106.036889,10.4955545 106.036889,9.99296319 L106.036889,9.8325625 C106.026196,9.74701503 106.020849,9.62938903 106.020849,9.47968097 L106.020849,9.20699979 C106.020849,9.08937203 106.047583,9.03055903 106.10105,9.03055903 C106.16521,9.03055903 106.21333,9.11075858 106.24541,9.27116007 C106.341651,9.83791202 106.61433,10.3110893 107.063454,10.6907062 C107.512578,11.0703231 108.015162,11.2601287 108.57122,11.2601287 C108.924104,11.2601287 109.210149,11.1505226 109.429364,10.9313072 C109.648579,10.7120919 109.758186,10.4260468 109.758186,10.0731635 C109.758186,9.79513428 109.656599,9.55988228 109.453424,9.36740049 C109.303716,9.22838586 108.902718,9.05194686 108.250419,8.8380782 C107.448412,8.57074237 106.868302,8.24727088 106.510071,7.867654 C106.151841,7.48803713 105.972729,7.00416655 105.972729,6.41602773 C105.972729,5.78511518 106.186595,5.25045155 106.614332,4.8120208 C107.042069,4.37359004 107.56604,4.15437796 108.186259,4.15437796 C108.421514,4.15437796 108.827859,4.22923086 109.405304,4.37893893 C109.490851,4.40032579 109.555011,4.41101906 109.597785,4.41101906 C109.83304,4.41101906 110.009479,4.26665988 110.127107,3.97793719 C110.148494,3.92447003 110.175227,3.89773685 110.207307,3.89773685 C110.282162,3.89773685 110.319588,3.96189648 110.319588,4.09021768 C110.319588,4.09021768 110.314241,4.19180377 110.303548,4.394979 C110.292854,4.43775273 110.287508,4.51260564 110.287508,4.61953997 C110.287508,5.05797072 110.314241,5.50708817 110.367708,5.96690579 L110.367708,6.04710614 C110.367708,6.1326536 110.335628,6.17542669 110.271468,6.17542669 C110.218001,6.17542669 110.175227,6.12730696 110.143147,6.03106607 C109.833038,4.9403359 109.202135,4.394979 108.250419,4.394979 C107.897536,4.394979 107.606144,4.49121845 107.376235,4.68370024 C107.146326,4.87618204 107.031374,5.12212731 107.031374,5.42154343 C107.031374,5.69957269 107.127613,5.91878478 107.320095,6.07918627 C107.512577,6.23958777 107.886841,6.4213734 108.4429,6.62454863 C109.416002,6.96673849 110.073639,7.30892321 110.415828,7.65111307 C110.758018,7.99330293 110.929111,8.46915356 110.929111,9.07867924 L110.929111,9.07867924 Z M117.71005,9.07867924 C117.71005,9.79513925 117.490838,10.3752493 117.052407,10.8190268 C116.613976,11.2628042 116.047233,11.4846896 115.35216,11.4846896 C115.00997,11.4846896 114.603626,11.3991435 114.133115,11.2280485 C113.748151,11.0890339 113.496859,11.0195276 113.379231,11.0195276 C113.176056,11.0195276 113.04239,11.0943805 112.97823,11.2440886 C112.914069,11.3937967 112.865949,11.4686496 112.833869,11.4686496 C112.769708,11.4686496 112.737629,11.4312231 112.737629,11.3563691 C112.737629,11.2922085 112.748322,11.1906224 112.769709,11.0516078 C112.801789,10.8484325 112.817829,10.4955545 112.817829,9.99296319 L112.817829,9.8325625 C112.807135,9.74701503 112.801789,9.62938903 112.801789,9.47968097 L112.801789,9.20699979 C112.801789,9.08937203 112.828522,9.03055903 112.881989,9.03055903 C112.94615,9.03055903 112.994269,9.11075858 113.02635,9.27116007 C113.122591,9.83791202 113.395269,10.3110893 113.844393,10.6907062 C114.293517,11.0703231 114.796101,11.2601287 115.35216,11.2601287 C115.705043,11.2601287 115.991088,11.1505226 116.210304,10.9313072 C116.429519,10.7120919 116.539125,10.4260468 116.539125,10.0731635 C116.539125,9.79513428 116.437539,9.55988228 116.234364,9.36740049 C116.084656,9.22838586 115.683658,9.05194686 115.031358,8.8380782 C114.229351,8.57074237 113.649241,8.24727088 113.291011,7.867654 C112.932781,7.48803713 112.753669,7.00416655 112.753669,6.41602773 C112.753669,5.78511518 112.967534,5.25045155 113.395271,4.8120208 C113.823009,4.37359004 114.346979,4.15437796 114.967198,4.15437796 C115.202454,4.15437796 115.608798,4.22923086 116.186243,4.37893893 C116.271791,4.40032579 116.335951,4.41101906 116.378724,4.41101906 C116.61398,4.41101906 116.790419,4.26665988 116.908047,3.97793719 C116.929433,3.92447003 116.956167,3.89773685 116.988247,3.89773685 C117.063101,3.89773685 117.100527,3.96189648 117.100527,4.09021768 C117.100527,4.09021768 117.095181,4.19180377 117.084487,4.394979 C117.073794,4.43775273 117.068447,4.51260564 117.068447,4.61953997 C117.068447,5.05797072 117.09518,5.50708817 117.148648,5.96690579 L117.148648,6.04710614 C117.148648,6.1326536 117.116568,6.17542669 117.052407,6.17542669 C116.99894,6.17542669 116.956167,6.12730696 116.924087,6.03106607 C116.613977,4.9403359 115.983074,4.394979 115.031358,4.394979 C114.678475,4.394979 114.387083,4.49121845 114.157175,4.68370024 C113.927266,4.87618204 113.812313,5.12212731 113.812313,5.42154343 C113.812313,5.69957269 113.908553,5.91878478 114.101034,6.07918627 C114.293516,6.23958777 114.667781,6.4213734 115.223839,6.62454863 C116.196942,6.96673849 116.854578,7.30892321 117.196768,7.65111307 C117.538958,7.99330293 117.71005,8.46915356 117.71005,9.07867924 L117.71005,9.07867924 Z M122.518061,1.02656444 C122.518061,1.32598056 122.416475,1.5826191 122.2133,1.79648776 C122.010124,2.01035642 121.764179,2.11728915 121.475456,2.11728915 C121.17604,2.11728915 120.924748,2.01570306 120.721573,1.81252783 C120.518398,1.60935261 120.416812,1.35271406 120.416812,1.04260451 C120.416812,0.743188382 120.518398,0.497243112 120.721573,0.304761317 C120.924748,0.112279523 121.186734,0.0160400693 121.507536,0.0160400693 C121.796259,0.0160400693 122.036858,0.112279523 122.22934,0.304761317 C122.421821,0.497243112 122.518061,0.737841745 122.518061,1.02656444 L122.518061,1.02656444 Z M123.672946,11.1959684 C123.672946,11.2708224 123.624826,11.3082489 123.528585,11.3082489 L121.395256,11.2761687 L119.855409,11.3082489 C119.791249,11.3082489 119.711049,11.3135955 119.614808,11.3242889 L119.470448,11.3242889 C119.342126,11.3242889 119.277967,11.2815159 119.277967,11.1959684 C119.277967,11.1318078 119.400939,11.0943813 119.646888,11.0836879 C120.010465,11.0729945 120.224331,11.0328947 120.288491,10.9633874 C120.352652,10.8938801 120.384732,10.6826879 120.384732,10.3298046 L120.384732,5.72630475 C120.384732,5.3199543 120.349979,5.07668234 120.280471,4.9964816 C120.210964,4.91628085 119.999772,4.87618108 119.646888,4.87618108 C119.422326,4.87618108 119.291334,4.87083444 119.253907,4.86014101 C119.21648,4.84944757 119.197767,4.81202112 119.197767,4.74786052 C119.197767,4.67300649 119.277966,4.63558004 119.438368,4.63558004 C120.614645,4.6248866 121.619813,4.44310097 122.453901,4.09021768 C122.475287,4.21853887 122.502021,4.57141687 122.534101,5.14886225 L122.550141,7.18595106 L122.550141,10.2014841 C122.550141,10.6399148 122.590241,10.8965534 122.670442,10.9714074 C122.750642,11.0462615 123.025994,11.0836879 123.496505,11.0836879 C123.614133,11.0836879 123.672946,11.1211144 123.672946,11.1959684 L123.672946,11.1959684 Z M133.549619,5.19698246 C133.549619,5.76373441 133.27694,6.04710614 132.731575,6.04710614 C132.228984,6.04710614 131.977692,5.81720078 131.977692,5.35738316 C131.977692,5.28252912 131.996405,5.19698294 132.033832,5.10074205 C132.071259,5.00450115 132.089972,4.93499488 132.089972,4.89222114 C132.089972,4.71043278 131.993733,4.61953997 131.801251,4.61953997 C131.67293,4.61953997 131.552631,4.67567965 131.44035,4.78796069 C131.328068,4.90024174 131.271929,5.02588769 131.271929,5.16490232 C131.271929,5.22906292 131.314702,5.34668892 131.400249,5.51778385 C131.603425,5.91344087 131.705011,6.28235878 131.705011,6.62454863 C131.705011,7.42655611 131.336093,8.09488565 130.598246,8.6295573 C130.031494,9.03590775 129.336431,9.23907993 128.513037,9.23907993 C128.170847,9.23907993 127.775196,9.1749203 127.326072,9.0465991 C127.208444,9.0145188 127.106858,8.99847889 127.02131,8.99847889 C126.818135,8.99847889 126.64437,9.05996521 126.500008,9.18293969 C126.355647,9.30591417 126.283467,9.4582933 126.283467,9.64008167 C126.283467,10.0250453 126.588225,10.2175242 127.197751,10.2175242 C127.657569,10.2175242 128.341938,10.1533645 129.25088,10.0250433 C129.475442,9.99296303 129.689308,9.97692312 129.892483,9.97692312 C130.608943,9.97692312 131.164993,10.1560354 131.56065,10.5142654 C131.956307,10.8724954 132.154133,11.3777526 132.154133,12.030052 C132.154133,13.0780084 131.750462,13.9120837 130.943107,14.5323028 C130.135753,15.1525219 129.047713,15.4626268 127.678953,15.4626268 C126.716544,15.4626268 125.954649,15.2942078 125.393243,14.9573646 C124.831838,14.6205215 124.55114,14.1580375 124.55114,13.5698987 C124.55114,12.6823437 125.203429,12.1476801 126.508028,11.9658917 C125.716714,11.6557822 125.321063,11.1852782 125.321063,10.5543656 C125.321063,9.69889098 125.828994,9.11610762 126.84487,8.80599806 C125.861074,8.30340671 125.369183,7.59765072 125.369183,6.68870891 C125.369183,5.9722489 125.681961,5.36807899 126.307527,4.87618108 C126.933093,4.38428316 127.694989,4.13833789 128.593237,4.13833789 C129.6305,4.13833789 130.437842,4.42170961 131.015288,4.98846156 C131.421638,4.46448334 131.902835,4.20249816 132.458894,4.20249816 C133.186047,4.20249816 133.549619,4.53398961 133.549619,5.19698246 L133.549619,5.19698246 Z M129.764162,6.78494933 C129.764162,5.15954751 129.373858,4.34685879 128.593237,4.34685879 C127.812617,4.34685879 127.422312,5.0846946 127.422312,6.56038835 C127.422312,7.4479433 127.518552,8.08419302 127.711033,8.4691566 C127.903515,8.85412019 128.224313,9.0465991 128.673438,9.0465991 C129.090481,9.0465991 129.376526,8.88352669 129.531581,8.55737699 C129.686636,8.23122728 129.764162,7.64042397 129.764162,6.78494933 L129.764162,6.78494933 Z M131.320049,12.960376 C131.320049,12.169062 130.854892,11.7734109 129.924563,11.7734109 C129.475439,11.7734109 128.887309,11.8322239 128.160155,11.9498516 C127.636177,12.0353991 127.245873,12.0781722 126.98923,12.0781722 L126.748629,12.0781722 C126.449213,12.4417489 126.299507,12.8908664 126.299507,13.425538 C126.299507,14.5590419 127.037343,15.1257854 128.513037,15.1257854 C129.304351,15.1257854 129.970007,14.9172666 130.510025,14.5002227 C131.050044,14.0831788 131.320049,13.5699017 131.320049,12.960376 L131.320049,12.960376 Z M1.67545947,23.8783374 L1.67545947,27.3322781 L1.12239518,27.3322781 L1.12239518,19.4050233 L3.0093204,19.4050233 C3.99255072,19.4050233 4.71911811,19.5866652 5.18904436,19.9499543 C5.65897062,20.3132435 5.89393022,20.8599764 5.89393022,21.5901695 C5.89393022,22.1215476 5.75385815,22.5697783 5.47370981,22.9348748 C5.19356146,23.2999714 4.7679231,23.5620417 4.19678196,23.7210937 L6.34939493,27.3322781 L5.68788666,27.3322781 L3.64371767,23.8783374 L1.67545947,23.8783374 Z M1.67545947,23.4011839 L3.18825296,23.4011839 C3.85699417,23.4011839 4.37571268,23.2520749 4.74442405,22.9538525 C5.11313542,22.6556301 5.29748834,22.2155327 5.29748834,21.6335471 C5.29748834,21.0298726 5.11675018,20.5906789 4.75526845,20.3159527 C4.39378671,20.0412266 3.80458032,19.9038656 2.9876316,19.9038656 L1.67545947,19.9038656 L1.67545947,23.4011839 Z M10.7322234,27.4407221 C9.87551166,27.4407221 9.20768417,27.1768444 8.72872087,26.6490811 C8.24975757,26.1213177 8.01027952,25.3820987 8.01027952,24.4314017 C8.01027952,23.4915492 8.24162436,22.7387748 8.70432098,22.1730559 C9.1670176,21.6073369 9.79056424,21.3244817 10.5749796,21.3244817 C11.2690245,21.3244817 11.8166611,21.5666709 12.2179059,22.0510564 C12.6191506,22.5354419 12.81977,23.1933288 12.81977,24.0247368 L12.81977,24.4585127 L8.5741882,24.4585127 C8.58141784,25.2682318 8.77028921,25.8863563 9.14080799,26.3129047 C9.51132677,26.7394532 10.0417933,26.9527242 10.7322234,26.9527242 C11.0684014,26.9527242 11.3639083,26.9292282 11.6187529,26.8822356 C11.8735975,26.835243 12.1962151,26.7340296 12.5866154,26.5785925 L12.5866154,27.0665904 C12.2540522,27.2111831 11.9467973,27.3096854 11.6648416,27.3621002 C11.3828858,27.4145151 11.0720162,27.4407221 10.7322234,27.4407221 L10.7322234,27.4407221 Z M10.5749796,21.8016352 C10.0074533,21.8016352 9.55199312,21.9886992 9.20858548,22.3628328 C8.86517783,22.7369664 8.66455847,23.2764698 8.6067214,23.9813592 L12.2504391,23.9813592 C12.2504391,23.2981587 12.1022338,22.7640775 11.8058188,22.3790994 C11.5094037,21.9941214 11.0991281,21.8016352 10.5749796,21.8016352 L10.5749796,21.8016352 Z M18.8672135,25.7977958 C18.8672135,26.3255592 18.6665941,26.7313163 18.2653494,27.0150795 C17.8641047,27.2988427 17.2947795,27.4407221 16.5573567,27.4407221 C15.7693265,27.4407221 15.1439725,27.3196275 14.6812759,27.0774348 L14.6812759,26.4972595 C15.2741059,26.7936745 15.89946,26.9418798 16.5573567,26.9418798 C17.1393423,26.9418798 17.5812471,26.8451849 17.8830844,26.6517922 C18.1849216,26.4583994 18.335838,26.2008476 18.335838,25.8791288 C18.335838,25.5827138 18.2156471,25.3332951 17.9752617,25.1308654 C17.7348764,24.9284356 17.3399635,24.7296236 16.7905113,24.5344235 C16.201296,24.3211493 15.7874057,24.1377 15.5488277,23.9840703 C15.3102498,23.8304406 15.1304153,23.6569319 15.0093189,23.4635392 C14.8882226,23.2701465 14.8276753,23.0342832 14.8276753,22.7559422 C14.8276753,22.3149345 15.0129319,21.9661099 15.3834507,21.7094579 C15.7539694,21.4528058 16.2717843,21.3244817 16.9369106,21.3244817 C17.5731185,21.3244817 18.1767839,21.4437689 18.7479251,21.6823469 L18.5473037,22.1703448 C17.9689329,21.9317668 17.4321406,21.8124796 16.9369106,21.8124796 C16.4561399,21.8124796 16.0747824,21.8920044 15.7928267,22.0510564 C15.5108709,22.2101084 15.3698952,22.4306089 15.3698952,22.7125647 C15.3698952,23.0198241 15.4792417,23.265628 15.6979382,23.4499837 C15.9166346,23.6343394 16.3440804,23.8403809 16.9802882,24.0681144 C17.5116664,24.2596997 17.898446,24.4323046 18.1406388,24.5859344 C18.3828316,24.7395641 18.5644734,24.9139764 18.6855698,25.1091766 C18.8066662,25.3043767 18.8672135,25.5339142 18.8672135,25.7977958 L18.8672135,25.7977958 Z M23.5319962,27.4407221 C22.6752845,27.4407221 22.007457,27.1768444 21.5284937,26.6490811 C21.0495304,26.1213177 20.8100524,25.3820987 20.8100524,24.4314017 C20.8100524,23.4915492 21.0413972,22.7387748 21.5040939,22.1730559 C21.9667905,21.6073369 22.5903371,21.3244817 23.3747525,21.3244817 C24.0687974,21.3244817 24.616434,21.5666709 25.0176787,22.0510564 C25.4189235,22.5354419 25.6195428,23.1933288 25.6195428,24.0247368 L25.6195428,24.4585127 L21.3739611,24.4585127 C21.3811907,25.2682318 21.5700621,25.8863563 21.9405809,26.3129047 C22.3110996,26.7394532 22.8415661,26.9527242 23.5319962,26.9527242 C23.8681743,26.9527242 24.1636811,26.9292282 24.4185258,26.8822356 C24.6733704,26.835243 24.995988,26.7340296 25.3863883,26.5785925 L25.3863883,27.0665904 C25.0538251,27.2111831 24.7465702,27.3096854 24.4646145,27.3621002 C24.1826587,27.4145151 23.8717891,27.4407221 23.5319962,27.4407221 L23.5319962,27.4407221 Z M23.3747525,21.8016352 C22.8072262,21.8016352 22.351766,21.9886992 22.0083583,22.3628328 C21.6649507,22.7369664 21.4643313,23.2764698 21.4064943,23.9813592 L25.0502119,23.9813592 C25.0502119,23.2981587 24.9020067,22.7640775 24.6055916,22.3790994 C24.3091766,21.9941214 23.898901,21.8016352 23.3747525,21.8016352 L23.3747525,21.8016352 Z M31.5910756,27.3322781 L31.4555206,26.3996599 L31.412143,26.3996599 C31.115728,26.7792157 30.8111842,27.0476119 30.4985025,27.2048565 C30.1858208,27.362101 29.8162112,27.4407221 29.3896628,27.4407221 C28.811292,27.4407221 28.361254,27.2925168 28.0395353,26.9961018 C27.7178165,26.6996868 27.5569596,26.2894112 27.5569596,25.7652626 C27.5569596,25.1905067 27.7964376,24.7440834 28.2754009,24.4259795 C28.7543642,24.1078756 29.447495,23.9397891 30.3548142,23.921715 L31.4772094,23.8891818 L31.4772094,23.4987835 C31.4772094,22.9384868 31.3633443,22.5155595 31.1356108,22.229989 C30.9078773,21.9444184 30.5409789,21.8016352 30.0349045,21.8016352 C29.489067,21.8016352 28.9233566,21.9534553 28.3377562,22.2570999 L28.1371348,21.7907908 C28.7841871,21.4871462 29.4240002,21.3353261 30.0565933,21.3353261 C30.7036456,21.3353261 31.1871201,21.5034126 31.5070315,21.8395906 C31.8269428,22.1757686 31.9868961,22.6999093 31.9868961,23.4120283 L31.9868961,27.3322781 L31.5910756,27.3322781 Z M29.422196,26.9527242 C30.0511742,26.9527242 30.5473004,26.7728897 30.9105896,26.4132154 C31.2738787,26.0535411 31.4555206,25.5538001 31.4555206,24.9139774 L31.4555206,24.3338021 L30.4253028,24.3771797 C29.5975096,24.4169427 29.0073995,24.5461705 28.6549548,24.7648669 C28.3025101,24.9835634 28.1262904,25.3242548 28.1262904,25.7869514 C28.1262904,26.1556628 28.2392518,26.4421328 28.4651779,26.64637 C28.691104,26.8506072 29.0101068,26.9527242 29.422196,26.9527242 L29.422196,26.9527242 Z M36.982433,21.3244817 C37.2318554,21.3244817 37.4993479,21.3497851 37.7849184,21.4003925 L37.6818966,21.9155014 C37.4360891,21.8540495 37.1812483,21.823324 36.9173666,21.823324 C36.414907,21.823324 36.002824,22.0365951 35.6811052,22.4631435 C35.3593865,22.889692 35.1985295,23.4282917 35.1985295,24.0789588 L35.1985295,27.3322781 L34.6617319,27.3322781 L34.6617319,21.4383479 L35.1171966,21.4383479 L35.1714186,22.5010989 L35.2093739,22.5010989 C35.4515667,22.0673208 35.7100223,21.762777 35.9847484,21.5874584 C36.2594745,21.4121397 36.5920327,21.3244817 36.982433,21.3244817 L36.982433,21.3244817 Z M41.8803703,27.4407221 C41.0381179,27.4407221 40.3784236,27.175037 39.9012677,26.6436589 C39.4241118,26.1122807 39.1855375,25.3712543 39.1855375,24.4205573 C39.1855375,23.4445566 39.4331487,22.6845527 39.9283787,22.1405227 C40.4236087,21.5964927 41.1013768,21.3244817 41.9617033,21.3244817 C42.4713926,21.3244817 42.9593856,21.4130434 43.425697,21.5901695 L43.2792976,22.067323 C42.7696084,21.8974266 42.3267999,21.8124796 41.9508589,21.8124796 C41.2278954,21.8124796 40.6802588,22.0356913 40.3079326,22.4821212 C39.9356065,22.9285511 39.7494462,23.5710753 39.7494462,24.4097129 C39.7494462,25.2049727 39.9356065,25.8276157 40.3079326,26.2776604 C40.6802588,26.7277052 41.2007847,26.9527242 41.8695259,26.9527242 C42.4045189,26.9527242 42.9015488,26.856933 43.3606306,26.6653477 L43.3606306,27.16419 C42.9846896,27.3485457 42.4912745,27.4407221 41.8803703,27.4407221 L41.8803703,27.4407221 Z M49.6791841,27.3322781 L49.6791841,23.5096279 C49.6791841,22.9167979 49.5544748,22.4857373 49.3050524,22.2164335 C49.05563,21.9471296 48.6688503,21.8124796 48.1447018,21.8124796 C47.4398124,21.8124796 46.923805,21.9905067 46.596664,22.3465662 C46.269523,22.7026257 46.105955,23.2800841 46.105955,24.0789588 L46.105955,27.3322781 L45.5691573,27.3322781 L45.5691573,18.8953366 L46.105955,18.8953366 L46.105955,21.5793251 L46.078844,22.3330107 L46.1167994,22.3330107 C46.3373033,21.9787586 46.61564,21.7221104 46.951818,21.5630585 C47.287996,21.4040065 47.7055012,21.3244817 48.204346,21.3244817 C49.5418284,21.3244817 50.2105596,22.0420122 50.2105596,23.4770947 L50.2105596,27.3322781 L49.6791841,27.3322781 Z M58.7267953,21.904657 L57.3387124,21.904657 L57.3387124,27.3322781 L56.8019147,27.3322781 L56.8019147,21.904657 L55.7066305,21.904657 L55.7066305,21.5901695 L56.8019147,21.3895481 L56.8019147,20.9340834 C56.8019147,20.2111199 56.9347572,19.6806535 57.2004463,19.342668 C57.4661354,19.0046826 57.9008107,18.8356924 58.5044852,18.8356924 C58.8298187,18.8356924 59.1551474,18.8844917 59.480481,18.9820918 L59.3557704,19.4484009 C59.066585,19.3580305 58.7792113,19.3128459 58.4936408,19.3128459 C58.0743219,19.3128459 57.7770077,19.4366516 57.601689,19.6842666 C57.4263704,19.9318816 57.3387124,20.3340239 57.3387124,20.8907058 L57.3387124,21.4383479 L58.7267953,21.4383479 L58.7267953,21.904657 Z M65.5062357,24.3771797 C65.5062357,25.3387211 65.2730834,26.0896882 64.806772,26.6301034 C64.3404606,27.1705186 63.6970327,27.4407221 62.8764692,27.4407221 C62.3595503,27.4407221 61.9040902,27.3160128 61.5100751,27.0665904 C61.11606,26.817168 60.8142273,26.4593064 60.6045678,25.992995 C60.3949084,25.5266836 60.2900803,24.9880839 60.2900803,24.3771797 C60.2900803,23.4156383 60.5232325,22.6664786 60.989544,22.1296783 C61.4558554,21.5928779 62.0956685,21.3244817 62.9090024,21.3244817 C63.7187215,21.3244817 64.3540161,21.5964927 64.8149053,22.1405227 C65.2757945,22.6845527 65.5062357,23.4300976 65.5062357,24.3771797 L65.5062357,24.3771797 Z M60.853989,24.3771797 C60.853989,25.1868988 61.0320161,25.8185787 61.3880756,26.2722382 C61.7441351,26.7258978 62.2474909,26.9527242 62.898158,26.9527242 C63.5488251,26.9527242 64.0521809,26.7258978 64.4082404,26.2722382 C64.7642999,25.8185787 64.942327,25.1868988 64.942327,24.3771797 C64.942327,23.5638458 64.7624925,22.9330697 64.4028182,22.4848323 C64.0431439,22.036595 63.5379807,21.8124796 62.8873136,21.8124796 C62.2366465,21.8124796 61.7350981,22.0356913 61.3826534,22.4821212 C61.0302087,22.9285511 60.853989,23.560231 60.853989,24.3771797 L60.853989,24.3771797 Z M70.2252404,21.3244817 C70.4746628,21.3244817 70.7421553,21.3497851 71.0277259,21.4003925 L70.9247041,21.9155014 C70.6788965,21.8540495 70.4240557,21.823324 70.1601741,21.823324 C69.6577144,21.823324 69.2456314,22.0365951 68.9239127,22.4631435 C68.602194,22.889692 68.441337,23.4282917 68.441337,24.0789588 L68.441337,27.3322781 L67.9045393,27.3322781 L67.9045393,21.4383479 L68.360004,21.4383479 L68.414226,22.5010989 L68.4521814,22.5010989 C68.6943742,22.0673208 68.9528297,21.762777 69.2275558,21.5874584 C69.502282,21.4121397 69.8348402,21.3244817 70.2252404,21.3244817 L70.2252404,21.3244817 Z M82.797281,23.2927399 C82.797281,24.6229927 82.4484563,25.6288006 81.7507966,26.3101936 C81.0531368,26.9915867 80.0283515,27.3322781 78.6764098,27.3322781 L76.7786402,27.3322781 L76.7786402,19.4050233 L78.9204087,19.4050233 C80.1855948,19.4050233 81.1480255,19.7357741 81.8077297,20.3972857 C82.4674338,21.0587973 82.797281,22.0239391 82.797281,23.2927399 L82.797281,23.2927399 Z M82.1954169,23.3144287 C82.1954169,22.1793761 81.9071395,21.3253883 81.3305762,20.7524397 C80.7540128,20.1794912 79.9072545,19.8930212 78.790276,19.8930212 L77.3317045,19.8930212 L77.3317045,26.8442802 L78.6438766,26.8442802 C81.011582,26.8442802 82.1954169,25.6676748 82.1954169,23.3144287 L82.1954169,23.3144287 Z M87.6301519,27.4407221 C86.7734402,27.4407221 86.1056127,27.1768444 85.6266494,26.6490811 C85.1476861,26.1213177 84.9082081,25.3820987 84.9082081,24.4314017 C84.9082081,23.4915492 85.1395529,22.7387748 85.6022495,22.1730559 C86.0649461,21.6073369 86.6884928,21.3244817 87.4729081,21.3244817 C88.1669531,21.3244817 88.7145897,21.5666709 89.1158344,22.0510564 C89.5170791,22.5354419 89.7176985,23.1933288 89.7176985,24.0247368 L89.7176985,24.4585127 L85.4721167,24.4585127 C85.4793464,25.2682318 85.6682178,25.8863563 86.0387365,26.3129047 C86.4092553,26.7394532 86.9397218,26.9527242 87.6301519,26.9527242 C87.9663299,26.9527242 88.2618368,26.9292282 88.5166814,26.8822356 C88.7715261,26.835243 89.0941437,26.7340296 89.4845439,26.5785925 L89.4845439,27.0665904 C89.1519807,27.2111831 88.8447259,27.3096854 88.5627701,27.3621002 C88.2808144,27.4145151 87.9699447,27.4407221 87.6301519,27.4407221 L87.6301519,27.4407221 Z M87.4729081,21.8016352 C86.9053818,21.8016352 86.4499217,21.9886992 86.106514,22.3628328 C85.7631064,22.7369664 85.562487,23.2764698 85.5046499,23.9813592 L89.1483676,23.9813592 C89.1483676,23.2981587 89.0001623,22.7640775 88.7037473,22.3790994 C88.4073323,21.9941214 87.9970567,21.8016352 87.4729081,21.8016352 L87.4729081,21.8016352 Z M95.765142,25.7977958 C95.765142,26.3255592 95.5645226,26.7313163 95.1632779,27.0150795 C94.7620332,27.2988427 94.192708,27.4407221 93.4552853,27.4407221 C92.6672551,27.4407221 92.0419011,27.3196275 91.5792044,27.0774348 L91.5792044,26.4972595 C92.1720345,26.7936745 92.7973885,26.9418798 93.4552853,26.9418798 C94.0372709,26.9418798 94.4791757,26.8451849 94.7810129,26.6517922 C95.0828501,26.4583994 95.2337665,26.2008476 95.2337665,25.8791288 C95.2337665,25.5827138 95.1135756,25.3332951 94.8731903,25.1308654 C94.6328049,24.9284356 94.2378921,24.7296236 93.6884398,24.5344235 C93.0992246,24.3211493 92.6853342,24.1377 92.4467563,23.9840703 C92.2081783,23.8304406 92.0283439,23.6569319 91.9072475,23.4635392 C91.7861511,23.2701465 91.7256038,23.0342832 91.7256038,22.7559422 C91.7256038,22.3149345 91.9108604,21.9661099 92.2813792,21.7094579 C92.651898,21.4528058 93.1697128,21.3244817 93.8348392,21.3244817 C94.471047,21.3244817 95.0747125,21.4437689 95.6458536,21.6823469 L95.4452323,22.1703448 C94.8668615,21.9317668 94.3300692,21.8124796 93.8348392,21.8124796 C93.3540685,21.8124796 92.972711,21.8920044 92.6907552,22.0510564 C92.4087995,22.2101084 92.2678237,22.4306089 92.2678237,22.7125647 C92.2678237,23.0198241 92.3771703,23.265628 92.5958667,23.4499837 C92.8145632,23.6343394 93.2420089,23.8403809 93.8782168,24.0681144 C94.4095949,24.2596997 94.7963746,24.4323046 95.0385673,24.5859344 C95.2807601,24.7395641 95.462402,24.9139764 95.5834983,25.1091766 C95.7045947,25.3043767 95.765142,25.5339142 95.765142,25.7977958 L95.765142,25.7977958 Z M98.5863772,27.3322781 L98.0495795,27.3322781 L98.0495795,21.4383479 L98.5863772,21.4383479 L98.5863772,27.3322781 Z M97.9736687,19.8008438 C97.9736687,19.4538214 98.0875337,19.2803127 98.3152672,19.2803127 C98.4273265,19.2803127 98.5149846,19.3254973 98.5782439,19.4158677 C98.6415032,19.5062381 98.6731323,19.6345622 98.6731323,19.8008438 C98.6731323,19.9635106 98.6415032,20.0918347 98.5782439,20.18582 C98.5149846,20.2798052 98.4273265,20.3267971 98.3152672,20.3267971 C98.0875337,20.3267971 97.9736687,20.1514811 97.9736687,19.8008438 L97.9736687,19.8008438 Z M105.924304,21.4383479 L105.924304,21.8124796 L104.704309,21.8883904 C105.029643,22.29325 105.192307,22.7378658 105.192307,23.2222514 C105.192307,23.7897777 105.003436,24.2497563 104.625687,24.602201 C104.247939,24.9546457 103.740968,25.1308654 103.104761,25.1308654 C102.837264,25.1308654 102.649296,25.1200211 102.540852,25.0983322 C102.327578,25.2103915 102.164913,25.3423304 102.052854,25.4941527 C101.940795,25.645975 101.884766,25.806832 101.884766,25.9767284 C101.884766,26.1646989 101.956157,26.3020599 102.098943,26.3888155 C102.241728,26.4755711 102.481206,26.5189483 102.817384,26.5189483 L103.847602,26.5189483 C104.487424,26.5189483 104.977225,26.6481761 105.317018,26.9066355 C105.656811,27.165095 105.826704,27.5473562 105.826704,28.0534306 C105.826704,28.6751792 105.574575,29.155039 105.070308,29.4930244 C104.566041,29.8310098 103.847606,30 102.914984,30 C102.173946,30 101.600102,29.8572169 101.193435,29.5716463 C100.786768,29.2860757 100.583438,28.8884518 100.583438,28.3787625 C100.583438,27.973903 100.709051,27.63773 100.960281,27.3702335 C101.211511,27.102737 101.552202,26.9201915 101.982365,26.8225914 C101.805239,26.7466803 101.66336,26.6391411 101.556723,26.4999706 C101.450086,26.3608001 101.396768,26.2008469 101.396768,26.020106 C101.396768,25.6260909 101.647994,25.2790736 102.150454,24.9790438 C101.807046,24.8380659 101.539553,24.6166617 101.347968,24.3148244 C101.156383,24.0129872 101.060592,23.6668736 101.060592,23.2764733 C101.060592,22.6872581 101.247656,22.2146278 101.621789,21.8585683 C101.995923,21.5025088 102.501086,21.3244817 103.137294,21.3244817 C103.524079,21.3244817 103.824105,21.3624367 104.037379,21.4383479 L105.924304,21.4383479 Z M101.152769,28.3299627 C101.152769,29.1396818 101.754627,29.5445353 102.958361,29.5445353 C104.505503,29.5445353 105.279062,29.0511201 105.279062,28.064275 C105.279062,27.7100229 105.157968,27.4533747 104.915775,27.2943227 C104.673582,27.1352708 104.28138,27.055746 103.739158,27.055746 L102.774006,27.055746 C101.693176,27.055746 101.152769,27.4804807 101.152769,28.3299627 L101.152769,28.3299627 Z M101.602811,23.2764733 C101.602811,23.7319403 101.741076,24.0852834 102.01761,24.3365132 C102.294143,24.587743 102.663753,24.7133561 103.126449,24.7133561 C103.618065,24.7133561 103.994904,24.5886467 104.256978,24.3392243 C104.519052,24.0898019 104.650087,23.7283256 104.650087,23.2547845 C104.650087,22.7523249 104.515437,22.3754859 104.246133,22.1242561 C103.97683,21.8730263 103.59999,21.7474132 103.115605,21.7474132 C102.645679,21.7474132 102.276069,21.8820632 102.006765,22.1513671 C101.737461,22.420671 101.602811,22.7957026 101.602811,23.2764733 L101.602811,23.2764733 Z M112.009703,27.3322781 L112.009703,23.5096279 C112.009703,22.9167979 111.884994,22.4857373 111.635571,22.2164335 C111.386149,21.9471296 110.999369,21.8124796 110.475221,21.8124796 C109.770331,21.8124796 109.254324,21.9905067 108.927183,22.3465662 C108.600042,22.7026257 108.436474,23.2800841 108.436474,24.0789588 L108.436474,27.3322781 L107.899676,27.3322781 L107.899676,21.4383479 L108.355141,21.4383479 L108.458163,22.2462555 L108.490696,22.2462555 C108.873866,21.6317366 109.555249,21.3244817 110.534865,21.3244817 C111.872347,21.3244817 112.541078,22.0420122 112.541078,23.4770947 L112.541078,27.3322781 L112.009703,27.3322781 Z M121.534468,19.4050233 L118.579369,27.3322781 L118.015461,27.3322781 L120.965137,19.4050233 L121.534468,19.4050233 Z M133.22269,23.2927399 C133.22269,24.6229927 132.873865,25.6288006 132.176205,26.3101936 C131.478546,26.9915867 130.45376,27.3322781 129.101819,27.3322781 L127.204049,27.3322781 L127.204049,19.4050233 L129.345818,19.4050233 C130.611004,19.4050233 131.573434,19.7357741 132.233138,20.3972857 C132.892843,21.0587973 133.22269,22.0239391 133.22269,23.2927399 L133.22269,23.2927399 Z M132.620826,23.3144287 C132.620826,22.1793761 132.332548,21.3253883 131.755985,20.7524397 C131.179422,20.1794912 130.332663,19.8930212 129.215685,19.8930212 L127.757113,19.8930212 L127.757113,26.8442802 L129.069285,26.8442802 C131.436991,26.8442802 132.620826,25.6676748 132.620826,23.3144287 L132.620826,23.3144287 Z M138.055561,27.4407221 C137.198849,27.4407221 136.531021,27.1768444 136.052058,26.6490811 C135.573095,26.1213177 135.333617,25.3820987 135.333617,24.4314017 C135.333617,23.4915492 135.564962,22.7387748 136.027658,22.1730559 C136.490355,21.6073369 137.113902,21.3244817 137.898317,21.3244817 C138.592362,21.3244817 139.139998,21.5666709 139.541243,22.0510564 C139.942488,22.5354419 140.143107,23.1933288 140.143107,24.0247368 L140.143107,24.4585127 L135.897526,24.4585127 C135.904755,25.2682318 136.093627,25.8863563 136.464145,26.3129047 C136.834664,26.7394532 137.365131,26.9527242 138.055561,26.9527242 C138.391739,26.9527242 138.687246,26.9292282 138.94209,26.8822356 C139.196935,26.835243 139.519552,26.7340296 139.909953,26.5785925 L139.909953,27.0665904 C139.57739,27.2111831 139.270135,27.3096854 138.988179,27.3621002 C138.706223,27.4145151 138.395354,27.4407221 138.055561,27.4407221 L138.055561,27.4407221 Z M137.898317,21.8016352 C137.330791,21.8016352 136.87533,21.9886992 136.531923,22.3628328 C136.188515,22.7369664 135.987896,23.2764698 135.930059,23.9813592 L139.573776,23.9813592 C139.573776,23.2981587 139.425571,22.7640775 139.129156,22.3790994 C138.832741,21.9941214 138.422465,21.8016352 137.898317,21.8016352 L137.898317,21.8016352 Z M146.190551,25.7977958 C146.190551,26.3255592 145.989931,26.7313163 145.588687,27.0150795 C145.187442,27.2988427 144.618117,27.4407221 143.880694,27.4407221 C143.092664,27.4407221 142.46731,27.3196275 142.004613,27.0774348 L142.004613,26.4972595 C142.597443,26.7936745 143.222797,26.9418798 143.880694,26.9418798 C144.46268,26.9418798 144.904584,26.8451849 145.206422,26.6517922 C145.508259,26.4583994 145.659175,26.2008476 145.659175,25.8791288 C145.659175,25.5827138 145.538984,25.3332951 145.298599,25.1308654 C145.058214,24.9284356 144.663301,24.7296236 144.113849,24.5344235 C143.524633,24.3211493 143.110743,24.1377 142.872165,23.9840703 C142.633587,23.8304406 142.453753,23.6569319 142.332656,23.4635392 C142.21156,23.2701465 142.151013,23.0342832 142.151013,22.7559422 C142.151013,22.3149345 142.336269,21.9661099 142.706788,21.7094579 C143.077307,21.4528058 143.595122,21.3244817 144.260248,21.3244817 C144.896456,21.3244817 145.500121,21.4437689 146.071262,21.6823469 L145.870641,22.1703448 C145.29227,21.9317668 144.755478,21.8124796 144.260248,21.8124796 C143.779477,21.8124796 143.39812,21.8920044 143.116164,22.0510564 C142.834208,22.2101084 142.693232,22.4306089 142.693232,22.7125647 C142.693232,23.0198241 142.802579,23.265628 143.021276,23.4499837 C143.239972,23.6343394 143.667418,23.8403809 144.303626,24.0681144 C144.835004,24.2596997 145.221783,24.4323046 145.463976,24.5859344 C145.706169,24.7395641 145.887811,24.9139764 146.008907,25.1091766 C146.130003,25.3043767 146.190551,25.5339142 146.190551,25.7977958 L146.190551,25.7977958 Z M149.011786,27.3322781 L148.474988,27.3322781 L148.474988,21.4383479 L149.011786,21.4383479 L149.011786,27.3322781 Z M148.399077,19.8008438 C148.399077,19.4538214 148.512942,19.2803127 148.740676,19.2803127 C148.852735,19.2803127 148.940393,19.3254973 149.003653,19.4158677 C149.066912,19.5062381 149.098541,19.6345622 149.098541,19.8008438 C149.098541,19.9635106 149.066912,20.0918347 149.003653,20.18582 C148.940393,20.2798052 148.852735,20.3267971 148.740676,20.3267971 C148.512942,20.3267971 148.399077,20.1514811 148.399077,19.8008438 L148.399077,19.8008438 Z M156.349713,21.4383479 L156.349713,21.8124796 L155.129718,21.8883904 C155.455052,22.29325 155.617716,22.7378658 155.617716,23.2222514 C155.617716,23.7897777 155.428845,24.2497563 155.051096,24.602201 C154.673348,24.9546457 154.166377,25.1308654 153.530169,25.1308654 C153.262673,25.1308654 153.074705,25.1200211 152.966261,25.0983322 C152.752986,25.2103915 152.590322,25.3423304 152.478263,25.4941527 C152.366203,25.645975 152.310175,25.806832 152.310175,25.9767284 C152.310175,26.1646989 152.381566,26.3020599 152.524351,26.3888155 C152.667137,26.4755711 152.906615,26.5189483 153.242793,26.5189483 L154.273011,26.5189483 C154.912833,26.5189483 155.402634,26.6481761 155.742426,26.9066355 C156.082219,27.165095 156.252113,27.5473562 156.252113,28.0534306 C156.252113,28.6751792 155.999983,29.155039 155.495716,29.4930244 C154.991449,29.8310098 154.273015,30 153.340392,30 C152.599355,30 152.025511,29.8572169 151.618844,29.5716463 C151.212177,29.2860757 151.008847,28.8884518 151.008847,28.3787625 C151.008847,27.973903 151.13446,27.63773 151.38569,27.3702335 C151.636919,27.102737 151.977611,26.9201915 152.407774,26.8225914 C152.230648,26.7466803 152.088769,26.6391411 151.982132,26.4999706 C151.875494,26.3608001 151.822177,26.2008469 151.822177,26.020106 C151.822177,25.6260909 152.073403,25.2790736 152.575862,24.9790438 C152.232455,24.8380659 151.964962,24.6166617 151.773377,24.3148244 C151.581792,24.0129872 151.486,23.6668736 151.486,23.2764733 C151.486,22.6872581 151.673064,22.2146278 152.047198,21.8585683 C152.421332,21.5025088 152.926495,21.3244817 153.562703,21.3244817 C153.949488,21.3244817 154.249513,21.3624367 154.462788,21.4383479 L156.349713,21.4383479 Z M151.578178,28.3299627 C151.578178,29.1396818 152.180036,29.5445353 153.38377,29.5445353 C154.930912,29.5445353 155.704471,29.0511201 155.704471,28.064275 C155.704471,27.7100229 155.583377,27.4533747 155.341184,27.2943227 C155.098991,27.1352708 154.706789,27.055746 154.164567,27.055746 L153.199415,27.055746 C152.118585,27.055746 151.578178,27.4804807 151.578178,28.3299627 L151.578178,28.3299627 Z M152.02822,23.2764733 C152.02822,23.7319403 152.166485,24.0852834 152.443018,24.3365132 C152.719552,24.587743 153.089162,24.7133561 153.551858,24.7133561 C154.043473,24.7133561 154.420312,24.5886467 154.682387,24.3392243 C154.944461,24.0898019 155.075496,23.7283256 155.075496,23.2547845 C155.075496,22.7523249 154.940846,22.3754859 154.671542,22.1242561 C154.402238,21.8730263 154.025399,21.7474132 153.541014,21.7474132 C153.071087,21.7474132 152.701478,21.8820632 152.432174,22.1513671 C152.16287,22.420671 152.02822,22.7957026 152.02822,23.2764733 L152.02822,23.2764733 Z M162.435112,27.3322781 L162.435112,23.5096279 C162.435112,22.9167979 162.310402,22.4857373 162.06098,22.2164335 C161.811558,21.9471296 161.424778,21.8124796 160.900629,21.8124796 C160.19574,21.8124796 159.679733,21.9905067 159.352592,22.3465662 C159.025451,22.7026257 158.861883,23.2800841 158.861883,24.0789588 L158.861883,27.3322781 L158.325085,27.3322781 L158.325085,21.4383479 L158.78055,21.4383479 L158.883571,22.2462555 L158.916105,22.2462555 C159.299275,21.6317366 159.980658,21.3244817 160.960274,21.3244817 C162.297756,21.3244817 162.966487,22.0420122 162.966487,23.4770947 L162.966487,27.3322781 L162.435112,27.3322781 Z M171.482723,21.904657 L170.09464,21.904657 L170.09464,27.3322781 L169.557842,27.3322781 L169.557842,21.904657 L168.462558,21.904657 L168.462558,21.5901695 L169.557842,21.3895481 L169.557842,20.9340834 C169.557842,20.2111199 169.690685,19.6806535 169.956374,19.342668 C170.222063,19.0046826 170.656738,18.8356924 171.260413,18.8356924 C171.585746,18.8356924 171.911075,18.8844917 172.236409,18.9820918 L172.111698,19.4484009 C171.822513,19.3580305 171.535139,19.3128459 171.249568,19.3128459 C170.83025,19.3128459 170.532935,19.4366516 170.357617,19.6842666 C170.182298,19.9318816 170.09464,20.3340239 170.09464,20.8907058 L170.09464,21.4383479 L171.482723,21.4383479 L171.482723,21.904657 Z M178.262163,24.3771797 C178.262163,25.3387211 178.029011,26.0896882 177.5627,26.6301034 C177.096388,27.1705186 176.45296,27.4407221 175.632397,27.4407221 C175.115478,27.4407221 174.660018,27.3160128 174.266003,27.0665904 C173.871988,26.817168 173.570155,26.4593064 173.360495,25.992995 C173.150836,25.5266836 173.046008,24.9880839 173.046008,24.3771797 C173.046008,23.4156383 173.27916,22.6664786 173.745472,22.1296783 C174.211783,21.5928779 174.851596,21.3244817 175.66493,21.3244817 C176.474649,21.3244817 177.109944,21.5964927 177.570833,22.1405227 C178.031722,22.6845527 178.262163,23.4300976 178.262163,24.3771797 L178.262163,24.3771797 Z M173.609917,24.3771797 C173.609917,25.1868988 173.787944,25.8185787 174.144003,26.2722382 C174.500063,26.7258978 175.003418,26.9527242 175.654086,26.9527242 C176.304753,26.9527242 176.808108,26.7258978 177.164168,26.2722382 C177.520227,25.8185787 177.698255,25.1868988 177.698255,24.3771797 C177.698255,23.5638458 177.51842,22.9330697 177.158746,22.4848323 C176.799071,22.036595 176.293908,21.8124796 175.643241,21.8124796 C174.992574,21.8124796 174.491026,22.0356913 174.138581,22.4821212 C173.786136,22.9285511 173.609917,23.560231 173.609917,24.3771797 L173.609917,24.3771797 Z M182.981168,21.3244817 C183.23059,21.3244817 183.498083,21.3497851 183.783653,21.4003925 L183.680632,21.9155014 C183.434824,21.8540495 183.179983,21.823324 182.916102,21.823324 C182.413642,21.823324 182.001559,22.0365951 181.67984,22.4631435 C181.358122,22.889692 181.197265,23.4282917 181.197265,24.0789588 L181.197265,27.3322781 L180.660467,27.3322781 L180.660467,21.4383479 L181.115932,21.4383479 L181.170154,22.5010989 L181.208109,22.5010989 C181.450302,22.0673208 181.708757,21.762777 181.983483,21.5874584 C182.25821,21.4121397 182.590768,21.3244817 182.981168,21.3244817 L182.981168,21.3244817 Z M195.363432,19.4050233 L195.363432,24.5344235 C195.363432,25.4453575 195.099554,26.1574658 194.571791,26.6707699 C194.044027,27.1840739 193.308423,27.4407221 192.364956,27.4407221 C191.446792,27.4407221 190.730165,27.1831702 190.215054,26.6680588 C189.699942,26.1529473 189.44239,25.4345131 189.44239,24.5127347 L189.44239,19.4050233 L190.000877,19.4050233 L190.000877,24.5344235 C190.000877,25.29715 190.212341,25.8908748 190.635274,26.3156158 C191.058208,26.7403569 191.656451,26.9527242 192.430022,26.9527242 C193.185519,26.9527242 193.77111,26.7439716 194.186814,26.3264602 C194.602518,25.9089488 194.810367,25.329683 194.810367,24.5886455 L194.810367,19.4050233 L195.363432,19.4050233 Z M202.26216,27.3322781 L202.26216,23.5096279 C202.26216,22.9167979 202.137451,22.4857373 201.888029,22.2164335 C201.638606,21.9471296 201.251827,21.8124796 200.727678,21.8124796 C200.022789,21.8124796 199.506781,21.9905067 199.17964,22.3465662 C198.852499,22.7026257 198.688931,23.2800841 198.688931,24.0789588 L198.688931,27.3322781 L198.152134,27.3322781 L198.152134,21.4383479 L198.607598,21.4383479 L198.71062,22.2462555 L198.743153,22.2462555 C199.126324,21.6317366 199.807707,21.3244817 200.787322,21.3244817 C202.124805,21.3244817 202.793536,22.0420122 202.793536,23.4770947 L202.793536,27.3322781 L202.26216,27.3322781 Z M207.626407,21.3244817 C208.052955,21.3244817 208.421661,21.4021991 208.732535,21.5576363 C209.04341,21.7130734 209.321746,21.9787585 209.567554,22.3546995 L209.600087,22.3546995 C209.578398,21.8992325 209.567554,21.4528093 209.567554,21.0154164 L209.567554,18.8953366 L210.098929,18.8953366 L210.098929,27.3322781 L209.746487,27.3322781 L209.610932,26.4321931 L209.567554,26.4321931 C209.119317,27.1045491 208.475889,27.4407221 207.637251,27.4407221 C206.823917,27.4407221 206.202178,27.1876887 205.772015,26.6816143 C205.341851,26.1755398 205.126773,25.4381282 205.126773,24.4693571 C205.126773,23.4499786 205.340044,22.6709972 205.766593,22.1323894 C206.193141,21.5937816 206.813073,21.3244817 207.626407,21.3244817 L207.626407,21.3244817 Z M207.626407,21.8124796 C206.982969,21.8124796 206.499495,22.0384023 206.175969,22.4902545 C205.852442,22.9421067 205.690682,23.5981862 205.690682,24.4585127 C205.690682,26.1285583 206.339532,26.9635686 207.637251,26.9635686 C208.302378,26.9635686 208.790371,26.7701788 209.101245,26.3833933 C209.412119,25.9966079 209.567554,25.3586022 209.567554,24.4693571 L209.567554,24.3771797 C209.567554,23.4662458 209.41483,22.8110699 209.109378,22.4116326 C208.803926,22.0121953 208.309607,21.8124796 207.626407,21.8124796 L207.626407,21.8124796 Z M215.224599,27.4407221 C214.367887,27.4407221 213.70006,27.1768444 213.221097,26.6490811 C212.742133,26.1213177 212.502655,25.3820987 212.502655,24.4314017 C212.502655,23.4915492 212.734,22.7387748 213.196697,22.1730559 C213.659393,21.6073369 214.28294,21.3244817 215.067355,21.3244817 C215.7614,21.3244817 216.309037,21.5666709 216.710282,22.0510564 C217.111526,22.5354419 217.312146,23.1933288 217.312146,24.0247368 L217.312146,24.4585127 L213.066564,24.4585127 C213.073794,25.2682318 213.262665,25.8863563 213.633184,26.3129047 C214.003703,26.7394532 214.534169,26.9527242 215.224599,26.9527242 C215.560777,26.9527242 215.856284,26.9292282 216.111129,26.8822356 C216.365973,26.835243 216.688591,26.7340296 217.078991,26.5785925 L217.078991,27.0665904 C216.746428,27.2111831 216.439173,27.3096854 216.157217,27.3621002 C215.875262,27.4145151 215.564392,27.4407221 215.224599,27.4407221 L215.224599,27.4407221 Z M215.067355,21.8016352 C214.499829,21.8016352 214.044369,21.9886992 213.700961,22.3628328 C213.357554,22.7369664 213.156934,23.2764698 213.099097,23.9813592 L216.742815,23.9813592 C216.742815,23.2981587 216.59461,22.7640775 216.298195,22.3790994 C216.00178,21.9941214 215.591504,21.8016352 215.067355,21.8016352 L215.067355,21.8016352 Z M222.025728,21.3244817 C222.275151,21.3244817 222.542643,21.3497851 222.828214,21.4003925 L222.725192,21.9155014 C222.479384,21.8540495 222.224544,21.823324 221.960662,21.823324 C221.458202,21.823324 221.046119,22.0365951 220.724401,22.4631435 C220.402682,22.889692 220.241825,23.4282917 220.241825,24.0789588 L220.241825,27.3322781 L219.705027,27.3322781 L219.705027,21.4383479 L220.160492,21.4383479 L220.214714,22.5010989 L220.252669,22.5010989 C220.494862,22.0673208 220.753318,21.762777 221.028044,21.5874584 C221.30277,21.4121397 221.635328,21.3244817 222.025728,21.3244817 L222.025728,21.3244817 Z M228.447304,25.7977958 C228.447304,26.3255592 228.246684,26.7313163 227.845439,27.0150795 C227.444195,27.2988427 226.87487,27.4407221 226.137447,27.4407221 C225.349417,27.4407221 224.724063,27.3196275 224.261366,27.0774348 L224.261366,26.4972595 C224.854196,26.7936745 225.47955,26.9418798 226.137447,26.9418798 C226.719432,26.9418798 227.161337,26.8451849 227.463174,26.6517922 C227.765012,26.4583994 227.915928,26.2008476 227.915928,25.8791288 C227.915928,25.5827138 227.795737,25.3332951 227.555352,25.1308654 C227.314966,24.9284356 226.920054,24.7296236 226.370601,24.5344235 C225.781386,24.3211493 225.367496,24.1377 225.128918,23.9840703 C224.89034,23.8304406 224.710505,23.6569319 224.589409,23.4635392 C224.468313,23.2701465 224.407765,23.0342832 224.407765,22.7559422 C224.407765,22.3149345 224.593022,21.9661099 224.963541,21.7094579 C225.33406,21.4528058 225.851874,21.3244817 226.517001,21.3244817 C227.153209,21.3244817 227.756874,21.4437689 228.328015,21.6823469 L228.127394,22.1703448 C227.549023,21.9317668 227.012231,21.8124796 226.517001,21.8124796 C226.03623,21.8124796 225.654873,21.8920044 225.372917,22.0510564 C225.090961,22.2101084 224.949985,22.4306089 224.949985,22.7125647 C224.949985,23.0198241 225.059332,23.265628 225.278028,23.4499837 C225.496725,23.6343394 225.92417,23.8403809 226.560378,24.0681144 C227.091756,24.2596997 227.478536,24.4323046 227.720729,24.5859344 C227.962922,24.7395641 228.144564,24.9139764 228.26566,25.1091766 C228.386756,25.3043767 228.447304,25.5339142 228.447304,25.7977958 L228.447304,25.7977958 Z M232.287912,26.9635686 C232.627705,26.9635686 232.924116,26.9346505 233.177153,26.8768134 L233.177153,27.3105893 C232.916886,27.397345 232.616861,27.4407221 232.277068,27.4407221 C231.756534,27.4407221 231.372465,27.3015537 231.12485,27.0232128 C230.877235,26.7448719 230.75343,26.3074855 230.75343,25.7110407 L230.75343,21.904657 L229.880456,21.904657 L229.880456,21.5901695 L230.75343,21.3461705 L231.02454,20.0123096 L231.301072,20.0123096 L231.301072,21.4383479 L233.030753,21.4383479 L233.030753,21.904657 L231.301072,21.904657 L231.301072,25.6351299 C231.301072,26.086982 231.380597,26.4213476 231.539649,26.6382367 C231.698701,26.8551257 231.948119,26.9635686 232.287912,26.9635686 L232.287912,26.9635686 Z M238.796243,27.3322781 L238.660688,26.3996599 L238.61731,26.3996599 C238.320895,26.7792157 238.016351,27.0476119 237.703669,27.2048565 C237.390988,27.362101 237.021378,27.4407221 236.59483,27.4407221 C236.016459,27.4407221 235.566421,27.2925168 235.244702,26.9961018 C234.922983,26.6996868 234.762127,26.2894112 234.762127,25.7652626 C234.762127,25.1905067 235.001605,24.7440834 235.480568,24.4259795 C235.959531,24.1078756 236.652662,23.9397891 237.559981,23.921715 L238.682376,23.8891818 L238.682376,23.4987835 C238.682376,22.9384868 238.568511,22.5155595 238.340778,22.229989 C238.113044,21.9444184 237.746146,21.8016352 237.240071,21.8016352 C236.694234,21.8016352 236.128524,21.9534553 235.542923,22.2570999 L235.342302,21.7907908 C235.989354,21.4871462 236.629167,21.3353261 237.26176,21.3353261 C237.908813,21.3353261 238.392287,21.5034126 238.712198,21.8395906 C239.03211,22.1757686 239.192063,22.6999093 239.192063,23.4120283 L239.192063,27.3322781 L238.796243,27.3322781 Z M236.627363,26.9527242 C237.256341,26.9527242 237.752467,26.7728897 238.115757,26.4132154 C238.479046,26.0535411 238.660688,25.5538001 238.660688,24.9139774 L238.660688,24.3338021 L237.63047,24.3771797 C236.802677,24.4169427 236.212567,24.5461705 235.860122,24.7648669 C235.507677,24.9835634 235.331457,25.3242548 235.331457,25.7869514 C235.331457,26.1556628 235.444419,26.4421328 235.670345,26.64637 C235.896271,26.8506072 236.215274,26.9527242 236.627363,26.9527242 L236.627363,26.9527242 Z M245.976926,27.3322781 L245.976926,23.5096279 C245.976926,22.9167979 245.852216,22.4857373 245.602794,22.2164335 C245.353371,21.9471296 244.966592,21.8124796 244.442443,21.8124796 C243.737554,21.8124796 243.221546,21.9905067 242.894406,22.3465662 C242.567265,22.7026257 242.403697,23.2800841 242.403697,24.0789588 L242.403697,27.3322781 L241.866899,27.3322781 L241.866899,21.4383479 L242.322364,21.4383479 L242.425385,22.2462555 L242.457919,22.2462555 C242.841089,21.6317366 243.522472,21.3244817 244.502087,21.3244817 C245.83957,21.3244817 246.508301,22.0420122 246.508301,23.4770947 L246.508301,27.3322781 L245.976926,27.3322781 Z M251.341172,21.3244817 C251.76772,21.3244817 252.136426,21.4021991 252.447301,21.5576363 C252.758175,21.7130734 253.036512,21.9787585 253.282319,22.3546995 L253.314852,22.3546995 C253.293164,21.8992325 253.282319,21.4528093 253.282319,21.0154164 L253.282319,18.8953366 L253.813695,18.8953366 L253.813695,27.3322781 L253.461252,27.3322781 L253.325697,26.4321931 L253.282319,26.4321931 C252.834082,27.1045491 252.190654,27.4407221 251.352016,27.4407221 C250.538683,27.4407221 249.916943,27.1876887 249.48678,26.6816143 C249.056617,26.1755398 248.841538,25.4381282 248.841538,24.4693571 C248.841538,23.4499786 249.054809,22.6709972 249.481358,22.1323894 C249.907906,21.5937816 250.527838,21.3244817 251.341172,21.3244817 L251.341172,21.3244817 Z M251.341172,21.8124796 C250.697735,21.8124796 250.21426,22.0384023 249.890734,22.4902545 C249.567208,22.9421067 249.405447,23.5981862 249.405447,24.4585127 C249.405447,26.1285583 250.054297,26.9635686 251.352016,26.9635686 C252.017143,26.9635686 252.505136,26.7701788 252.81601,26.3833933 C253.126884,25.9966079 253.282319,25.3586022 253.282319,24.4693571 L253.282319,24.3771797 C253.282319,23.4662458 253.129596,22.8110699 252.824143,22.4116326 C252.518691,22.0121953 252.024373,21.8124796 251.341172,21.8124796 L251.341172,21.8124796 Z M257.095817,27.3322781 L256.559019,27.3322781 L256.559019,21.4383479 L257.095817,21.4383479 L257.095817,27.3322781 Z M256.483108,19.8008438 C256.483108,19.4538214 256.596973,19.2803127 256.824707,19.2803127 C256.936766,19.2803127 257.024424,19.3254973 257.087684,19.4158677 C257.150943,19.5062381 257.182572,19.6345622 257.182572,19.8008438 C257.182572,19.9635106 257.150943,20.0918347 257.087684,20.18582 C257.024424,20.2798052 256.936766,20.3267971 256.824707,20.3267971 C256.596973,20.3267971 256.483108,20.1514811 256.483108,19.8008438 L256.483108,19.8008438 Z M263.945746,27.3322781 L263.945746,23.5096279 C263.945746,22.9167979 263.821036,22.4857373 263.571614,22.2164335 C263.322192,21.9471296 262.935412,21.8124796 262.411263,21.8124796 C261.706374,21.8124796 261.190367,21.9905067 260.863226,22.3465662 C260.536085,22.7026257 260.372517,23.2800841 260.372517,24.0789588 L260.372517,27.3322781 L259.835719,27.3322781 L259.835719,21.4383479 L260.291184,21.4383479 L260.394205,22.2462555 L260.426739,22.2462555 C260.809909,21.6317366 261.491292,21.3244817 262.470908,21.3244817 C263.80839,21.3244817 264.477121,22.0420122 264.477121,23.4770947 L264.477121,27.3322781 L263.945746,27.3322781 Z M271.749982,21.4383479 L271.749982,21.8124796 L270.529987,21.8883904 C270.855321,22.29325 271.017985,22.7378658 271.017985,23.2222514 C271.017985,23.7897777 270.829113,24.2497563 270.451365,24.602201 C270.073617,24.9546457 269.566646,25.1308654 268.930438,25.1308654 C268.662942,25.1308654 268.474974,25.1200211 268.36653,25.0983322 C268.153255,25.2103915 267.990591,25.3423304 267.878532,25.4941527 C267.766472,25.645975 267.710444,25.806832 267.710444,25.9767284 C267.710444,26.1646989 267.781835,26.3020599 267.92462,26.3888155 C268.067406,26.4755711 268.306884,26.5189483 268.643062,26.5189483 L269.67328,26.5189483 C270.313102,26.5189483 270.802903,26.6481761 271.142695,26.9066355 C271.482488,27.165095 271.652382,27.5473562 271.652382,28.0534306 C271.652382,28.6751792 271.400252,29.155039 270.895985,29.4930244 C270.391718,29.8310098 269.673284,30 268.740661,30 C267.999624,30 267.42578,29.8572169 267.019113,29.5716463 C266.612446,29.2860757 266.409116,28.8884518 266.409116,28.3787625 C266.409116,27.973903 266.534729,27.63773 266.785959,27.3702335 C267.037188,27.102737 267.37788,26.9201915 267.808043,26.8225914 C267.630917,26.7466803 267.489038,26.6391411 267.3824,26.4999706 C267.275763,26.3608001 267.222446,26.2008469 267.222446,26.020106 C267.222446,25.6260909 267.473672,25.2790736 267.976131,24.9790438 C267.632724,24.8380659 267.365231,24.6166617 267.173646,24.3148244 C266.982061,24.0129872 266.886269,23.6668736 266.886269,23.2764733 C266.886269,22.6872581 267.073333,22.2146278 267.447467,21.8585683 C267.8216,21.5025088 268.326764,21.3244817 268.962971,21.3244817 C269.349757,21.3244817 269.649782,21.3624367 269.863056,21.4383479 L271.749982,21.4383479 Z M266.978447,28.3299627 C266.978447,29.1396818 267.580305,29.5445353 268.784039,29.5445353 C270.331181,29.5445353 271.10474,29.0511201 271.10474,28.064275 C271.10474,27.7100229 270.983645,27.4533747 270.741453,27.2943227 C270.49926,27.1352708 270.107058,27.055746 269.564836,27.055746 L268.599684,27.055746 C267.518854,27.055746 266.978447,27.4804807 266.978447,28.3299627 L266.978447,28.3299627 Z M267.428489,23.2764733 C267.428489,23.7319403 267.566754,24.0852834 267.843287,24.3365132 C268.119821,24.587743 268.48943,24.7133561 268.952127,24.7133561 C269.443742,24.7133561 269.820581,24.5886467 270.082656,24.3392243 C270.34473,24.0898019 270.475765,23.7283256 270.475765,23.2547845 C270.475765,22.7523249 270.341115,22.3754859 270.071811,22.1242561 C269.802507,21.8730263 269.425668,21.7474132 268.941283,21.7474132 C268.471356,21.7474132 268.101747,21.8820632 267.832443,22.1513671 C267.563139,22.420671 267.428489,22.7957026 267.428489,23.2764733 L267.428489,23.2764733 Z" id="Tara-Parker-Essig" fill="#242323"></path>
    </g>
</svg>